<svg xmlns="http://www.w3.org/2000/svg" width="64" height="61" viewBox="0 0 64 61" fill="none">
  <g clip-path="url(#clip0_163_1984)">
    <path d="M15.2301 33.6088L16.9234 20.7247L2.23633 10.3991L15.6557 15.0025L18.8249 10.0781L30.3971 2.80615L55.9047 17.0383L57.2267 38.7532L45.8628 54.746L36.8804 56.1399L41.5255 47.5291V39.2393L38.148 32.7651L34.7162 30.4634L29.4372 35.9747V41.8069L25.3173 45.7134L20.0835 46.3553L17.7655 47.685L13.9624 46.4562L12.3778 40.679L15.2301 36.6166V33.6088Z" fill="white"/>
    <path d="M38.6827 10.2891C35.8848 9.70223 32.8242 9.85812 32.8242 9.85812C32.8242 9.85812 31.8191 14.5624 25.5894 15.8004C25.6346 15.8004 33.8203 18.634 38.6827 10.2891Z" fill="#94A6C3"/>
    <path d="M41.2181 52.9763C44.5955 50.2986 47.1309 46.6122 48.299 42.4398C48.3533 42.2839 48.8242 42.0088 49.1411 41.7978C49.6663 41.4769 50.2005 41.211 50.3001 40.78C50.5084 39.5512 50.617 38.2673 50.617 36.9835C50.617 36.5067 50.1371 36.0206 49.6663 35.5438C49.295 35.2228 48.9238 34.8469 48.9238 34.5809C48.3986 29.7116 46.1801 25.1631 42.6397 21.8527L42.2684 22.2287C45.7002 25.4933 47.9187 29.9316 48.3986 34.6359C48.4529 35.0669 48.8695 35.4888 49.295 35.9198C49.6663 36.2407 50.0919 36.7267 50.0919 36.9377C50.0919 38.1665 49.9832 39.3953 49.7749 40.6241C49.7206 40.835 49.2498 41.0551 48.8785 41.266C48.3533 41.5319 47.8734 41.7978 47.7738 42.2288C46.5061 46.7772 43.5995 50.7388 39.7421 53.3064C40.4303 51.8117 42.5944 46.9423 43.7534 44.4755L43.5452 36.5617L36.8355 29.9867L33.0324 30.5185L28.8581 37.3686C28.8581 37.3686 30.814 39.8813 28.0613 42.8249C25.372 45.7135 23.2531 46.3554 23.2531 46.3554L21.2973 45.2825C21.8768 44.5306 23.0449 43.4118 23.9413 42.6598C25.4716 41.376 27.0019 41.266 27.0019 39.8813C27.0653 36.9835 23.9957 37.7813 23.9957 37.7813L22.8819 38.8542L22.411 42.8157L20.093 45.7594L19.8304 45.7043L16.0273 44.8515C16.0273 44.8515 18.3545 43.6227 18.7257 42.2288C19.097 40.89 17.9832 36.4516 17.9289 36.1857C17.9832 36.2407 19.0426 37.1486 19.5135 38.6433C20.3556 36.2866 21.4693 34.0399 21.7863 33.829C22.1032 33.618 26.3771 31.3163 26.3771 31.3163L24.9555 35.1128L26.0149 34.5259L28.5503 28.2168C28.5503 28.2168 31.0313 26.988 32.8785 26.988C36.2017 26.933 41.1185 22.8156 38.9 15.4336C39.5339 15.6995 50.5174 21.2658 52.419 32.1783C53.8406 40.569 49.1411 48.4279 41.2181 52.9763Z" fill="#94A6C3"/>
    <path d="M28.6497 11.4625C29.863 10.0136 29.3922 7.87695 29.3922 7.87695L25.8517 13.1773C25.7974 13.1773 27.1104 13.2323 28.6497 11.4625Z" fill="#1B314F"/>
    <path d="M16.7607 40.4037L17.1863 38.2671C17.1863 38.2671 15.4387 41.3666 15.2848 41.7976C15.1218 42.2836 15.3934 43.1365 16.0726 43.0814C16.7607 43.0264 17.6028 42.0085 17.6028 41.2657C17.6028 40.3029 16.7607 40.4037 16.7607 40.4037Z" fill="#1B314F"/>
    <path d="M48.136 6.38239C48.136 6.38239 50.78 6.49244 53.5236 6.81339C47.3391 1.88901 41.4806 0.44929 36.7268 0.44929C30.1801 0.44929 25.7432 3.182 25.4716 3.33789L27.5361 0.0182915C27.5361 0.0182915 19.2961 -0.788684 16.3895 8.04219C15.647 6.17148 14.9679 3.43877 14.9679 3.43877C14.9679 3.43877 10.6849 7.24439 12.6951 13.5535C7.77829 11.7378 0.760747 9.21598 0.4891 9.17013C0.117849 9.1151 0.00919066 9.28017 0.00919066 9.28017C0.00919066 9.28017 -0.0994681 9.43606 0.217453 9.71117C0.806021 10.1788 11.8983 18.4779 14.334 20.0826C13.8089 22.0084 13.8089 22.9162 14.334 23.8241C15.0765 25.0529 15.1218 25.6948 15.0222 26.6026C14.9135 27.5105 13.9628 35.3785 13.7545 36.3414C13.5463 37.3042 11.3278 40.7247 11.4274 41.7426C11.5361 42.7605 12.9034 47.0888 14.1258 47.5748C15.0222 47.8958 17.2407 48.5927 18.7166 48.5927C19.2418 48.5927 19.7217 48.4827 19.93 48.2718C20.8264 47.4739 21.089 47.3089 21.7228 47.3089C21.7772 47.3089 21.8315 47.3089 21.8768 47.3089C22.1394 47.3089 22.4563 47.3639 22.8275 47.3639C23.6696 47.3639 24.7834 47.1988 25.5712 46.4561C26.7302 45.2823 28.7404 43.6775 29.3742 42.9255C30.171 41.9077 30.5876 40.523 30.3793 39.1291C30.2163 37.8453 30.9045 36.7173 31.7013 35.5986C32.7064 34.2597 34.5536 31.8571 34.5536 31.8571C38.2027 34.6265 40.4755 38.854 40.4755 43.5583C40.4755 51.9031 33.295 58.6432 24.4212 58.6432C23.0448 58.6432 21.7319 58.4873 20.4099 58.1664C24.4755 59.6061 27.9073 60.0921 30.7143 60.0921C36.6815 60.0921 39.8507 57.9004 39.8507 57.9004C39.8507 57.9004 38.746 59.3493 36.9441 61C36.9984 61 36.9984 61 36.9984 61C46.8773 59.6061 51.6855 51.3713 51.6855 51.3713C51.6855 51.3713 51.3142 54.049 50.8434 55.8647C63.982 45.86 61.7636 33.3427 61.7092 32.9209C61.8179 33.0768 63.1399 34.6816 63.819 35.5435C65.9379 13.4985 48.136 6.38239 48.136 6.38239ZM27.9073 41.5867C27.6991 41.8526 26.8026 42.6596 26.1688 43.2465C25.5349 43.8334 24.8468 44.4203 24.3216 44.9613C24.1133 45.1722 23.6877 45.2823 23.0539 45.2823C22.8456 45.2823 22.6283 45.2823 22.4744 45.2823C22.3657 45.2823 22.2661 45.2823 22.1575 45.2823C22.0488 45.2823 21.9945 45.2823 21.9492 45.2823C21.7862 45.2823 21.6323 45.2823 21.4693 45.2823C22.2661 44.2094 24.5842 41.7518 25.381 41.2199C26.3318 40.578 26.8117 39.9361 26.2231 38.8173C25.6436 37.6894 24.1133 37.9645 24.1133 37.9645C24.1133 37.9645 25.0098 37.5885 25.8066 37.5885C24.8015 37.3226 23.5338 37.5885 22.9543 38.1754C22.3205 38.7623 22.4291 40.8531 22.1665 42.1828C21.9039 43.5766 21.0075 44.2736 19.6311 45.5574C18.8886 46.2543 18.3635 46.4652 17.9379 46.4652C17.0414 46.3093 15.982 46.0342 15.2395 45.7683C14.7143 45.0714 13.9175 42.7696 13.7092 41.8068C13.8632 41.2749 14.497 40.147 14.8139 39.5051C15.4478 38.2763 15.819 37.5793 15.9277 36.9374C16.136 36.0296 16.8241 30.4083 17.0867 28.0607C17.7749 28.9685 18.7257 30.4724 18.5083 31.4353C20.0386 29.2436 18.9339 27.0978 18.3997 26.245C17.9288 25.3922 17.295 23.6773 17.8202 21.8616C18.3454 20.046 20.2469 15.0115 20.2469 15.0115C20.2469 15.0115 20.8807 16.1395 21.7772 15.9194C22.6736 15.7085 29.9085 4.68591 29.9085 4.68591C29.9085 4.68591 31.8643 9.01423 29.7998 12.1779C27.69 15.3325 25.6255 15.9194 25.6255 15.9194C25.6255 15.9194 28.5321 16.4512 31.2214 14.4705C32.3261 17.0932 33.3855 19.8167 33.4399 20.1927C33.2769 20.5687 31.1671 25.704 30.9588 26.0249C30.8502 26.1349 30.1167 26.3459 29.5825 26.4559C28.686 26.7218 28.1609 26.8869 27.9435 27.0428C27.5723 27.3638 25.879 32.0681 25.0913 34.3698C24.1405 34.6357 23.1897 35.1767 22.5016 36.2405C22.8728 35.9745 24.0318 35.8095 24.883 35.7086C25.6255 35.6536 27.8892 36.8824 28.4778 39.1841C28.4778 39.2391 28.4778 39.2391 28.4778 39.2942C28.5955 40.1378 28.3329 40.9448 27.9073 41.5867ZM22.9452 42.2286C23.4251 41.5317 23.3708 40.3579 23.4252 39.9819C23.4795 39.6059 23.5791 38.909 24.0047 38.8081C24.4302 38.6981 25.4353 38.8632 25.4353 39.6059C25.4353 40.3029 24.6928 40.4588 24.1677 40.9448C23.7873 41.3116 23.0448 42.1186 22.9452 42.2286ZM44.016 32.0039C44.5412 29.2803 44.5955 26.9236 44.4416 24.9978C46.497 27.7764 47.7647 31.151 48.136 34.6265C48.1903 35.0575 48.6068 35.4794 49.0324 35.9104C49.4036 36.2313 49.8292 36.6623 49.8292 36.9282C49.8292 38.1571 49.7206 39.3859 49.5123 40.6238C49.458 40.7797 48.9871 41.0548 48.6159 41.2657C48.0907 41.5317 47.6108 41.7976 47.5112 42.2286C46.3521 46.346 43.8621 49.9866 40.5389 52.5542C45.4467 47.3639 47.819 38.799 44.016 32.0039ZM40.6928 53.0311C44.1246 50.3534 46.7687 46.612 47.9277 42.3845C47.982 42.2286 48.4529 41.9535 48.7698 41.7426C49.295 41.4767 49.8292 41.1557 49.9288 40.7247C50.1371 39.4959 50.2458 38.2121 50.2458 36.9282C50.2458 36.4514 49.7658 35.9654 49.295 35.4885C49.0324 35.1676 48.6068 34.7916 48.6068 34.5257C48.1812 30.6192 46.651 26.9328 44.2786 23.8791C43.2192 17.46 38.9996 15.4792 38.8909 15.4242C38.9996 15.5892 41.7432 19.5966 39.8417 24.3009C37.8858 29.0602 32.8694 28.3175 32.4438 28.3633C32.0182 28.3633 30.3884 30.5 28.3238 34.4615C28.0613 34.3514 26.9475 34.0855 25.6798 34.3056C26.6306 31.6279 28.0613 27.8314 28.3238 27.5105C28.4325 27.4004 29.2203 27.1895 29.7545 27.0336C30.7596 26.7677 31.2305 26.6026 31.3935 26.3917C31.5021 26.2267 32.0273 24.9978 32.5525 23.714C33.0324 23.714 34.2458 23.604 34.3454 23.549C34.454 23.4389 35.4591 20.8254 35.4591 20.5045C35.4591 20.2385 33.3946 15.0482 32.6068 13.0674C32.9781 12.6365 33.3493 12.1046 33.7115 11.5177C44.5412 12.7006 52.9984 22.0084 52.9984 33.2877C52.9984 41.9535 47.982 49.5006 40.6928 53.0311Z" fill="#1B314F"/>
    <path d="M26.6394 24.145C27.6444 22.9712 27.1193 20.7795 25.263 20.4035C25.7429 19.2848 26.422 17.0381 26.422 17.0381C26.422 17.0381 21.0344 25.5939 20.5635 25.7589C20.0836 25.924 19.6128 24.0441 19.6128 24.0441C18.6077 27.9506 21.306 28.4825 21.6229 27.2537C23.0989 26.8685 25.6343 25.2637 26.6394 24.145Z" fill="#1B314F"/>
    <path d="M22.0396 26.2266L24.7832 21.4673C24.7832 21.4673 26.3678 22.2743 25.571 23.5581C24.5749 25.0528 22.0396 26.2266 22.0396 26.2266Z" fill="#FFD923"/>
    <path d="M56.0044 48.2717C55.2075 49.3447 54.3111 50.4634 53.2607 51.5363C60.07 38.2671 53.5777 26.1258 53.3151 25.6489C53.795 26.1349 54.2658 26.6668 54.6914 27.1437C59.9161 33.0217 60.5499 41.8526 56.0044 48.2717Z" fill="#D82122"/>
    <path d="M62.343 31.2059C59.9616 24.7318 56.5841 19.2205 49.141 14.2502C41.9604 9.43591 34.2457 9.81188 33.8201 9.8669C33.7658 9.8669 33.7114 9.8669 33.7114 9.8669C33.974 9.75686 34.2366 9.70184 34.4992 9.65599C36.1381 9.12412 38.2479 8.69312 40.3668 8.42719C45.9718 7.61104 51.622 9.53678 55.4794 13.6634C55.5337 13.7184 55.5337 13.7184 55.5881 13.7734C59.9706 18.4777 62.2434 24.3558 62.343 31.2059Z" fill="#D82122"/>
    <path d="M47.4478 4.72257C39.579 3.22783 34.5083 3.97061 30.8592 5.36448C30.7505 4.93348 30.3793 4.08065 30.0624 3.38372C28.9667 4.72257 27.7986 6.32735 27.0652 7.34524C25.055 8.7391 24.2129 10.0779 24.2129 10.0779C25.3719 6.06141 28.7584 3.07193 32.8784 2.31998C34.0375 2.10907 35.3051 1.99902 36.6815 1.99902C40.3215 2.05404 43.9616 2.96189 47.4478 4.72257Z" fill="#D82122"/>
    <path d="M18.3452 14.9935C12.1698 14.7825 14.2252 7.50142 14.3339 7.07959C14.3339 7.13461 14.7504 12.8018 18.3452 14.9935Z" fill="#D82122"/>
    <path d="M24.4208 1.88916C19.667 4.77777 20.6178 11.6737 20.6178 11.6737C16.0722 4.67689 24.0496 2.05422 24.4208 1.88916Z" fill="#D82122"/>
    <path d="M16.6068 16.9188C16.9237 17.1848 17.2407 17.6708 16.8694 18.3677C16.6611 18.7437 16.3442 18.6887 15.8643 18.4778C15.2305 18.1568 11.4274 15.9101 7.99561 13.6084C11.9073 15.0023 15.8643 16.497 16.4982 16.818C16.4982 16.818 16.5525 16.873 16.6068 16.9188Z" fill="white"/>
  </g>
  <defs>
    <clipPath id="clip0_163_1984">
      <rect width="64" height="61" fill="white"/>
    </clipPath>
  </defs>
</svg>