<svg xmlns="http://www.w3.org/2000/svg" width="24" height="24" viewBox="0 0 24 24" fill="none">
  <g clip-path="url(#clip0_163_2008)">
    <path d="M12.0061 1.76368C11.9309 1.76319 11.8569 1.78203 11.7912 1.81838C11.7266 1.85456 11.6727 1.90708 11.635 1.97068L9.36145 5.83418C9.28721 5.96024 9.24809 6.10388 9.24815 6.25018C9.24815 6.39618 9.28695 6.53978 9.36145 6.66618L14.3127 15.0785C14.3883 15.2057 14.4961 15.3108 14.6252 15.3832C14.7544 15.4563 14.9005 15.4947 15.0491 15.4945H19.598C19.6726 15.4942 19.7459 15.4747 19.8109 15.4379C19.8748 15.4015 19.928 15.349 19.9652 15.2855C20.0027 15.2229 20.023 15.1515 20.0238 15.0785C20.0236 15.005 20.0041 14.9329 19.9671 14.8695L12.3713 1.97468C12.3342 1.91113 12.281 1.85854 12.217 1.82228C12.1529 1.78476 12.0803 1.76457 12.0061 1.76368ZM8.01965 8.50598C7.94561 8.50626 7.8729 8.52577 7.80865 8.56258C7.74417 8.59886 7.69031 8.65141 7.65245 8.71498L0.0585521 21.6097C0.0205856 21.6727 0.000356729 21.7448 4.675e-06 21.8184C-0.000347379 21.892 0.0191904 21.9643 0.0565521 22.0277C0.0942633 22.0914 0.148196 22.144 0.212852 22.1801C0.277852 22.2166 0.350852 22.2371 0.425752 22.2367H4.97665C5.12517 22.2369 5.27119 22.1985 5.40045 22.1254C5.52894 22.0529 5.63605 21.9478 5.71095 21.8207L10.6642 13.4084C10.7384 13.2823 10.7775 13.1387 10.7775 12.9924C10.7775 12.8455 10.7384 12.7012 10.6642 12.5744L8.38875 8.71498C8.35089 8.65141 8.29704 8.59886 8.23255 8.56258C8.16759 8.52574 8.09433 8.50625 8.01965 8.50598ZM11.0314 17.3304C10.8822 17.3301 10.7355 17.3685 10.6056 17.4417C10.477 17.5142 10.3699 17.6193 10.2951 17.7464L8.01965 21.6078C7.98247 21.6712 7.96289 21.7433 7.96295 21.8168C7.96294 21.8896 7.98252 21.9611 8.01965 22.0238C8.0567 22.0878 8.1099 22.141 8.17395 22.1781C8.23902 22.2144 8.31236 22.2332 8.38685 22.2328H23.5766C23.6511 22.2332 23.7244 22.2144 23.7895 22.1781C23.8535 22.1411 23.9067 22.0878 23.9438 22.0238C23.9808 21.9611 24.0004 21.8896 24.0004 21.8168C24.0004 21.7433 23.9809 21.6712 23.9438 21.6078L21.6702 17.7464C21.5952 17.6193 21.4881 17.5141 21.3596 17.4417C21.2303 17.3685 21.0843 17.3301 20.9358 17.3304H11.0314Z" fill="black"/>
  </g>
  <defs>
    <clipPath id="clip0_163_2008">
      <rect width="24" height="24" fill="white"/>
    </clipPath>
  </defs>
</svg>