<svg xmlns="http://www.w3.org/2000/svg" width="65" height="65" viewBox="0 0 65 65" fill="none">
  <g clip-path="url(#clip0_163_2000)">
    <mask id="mask0_163_2000" style="mask-type:luminance" maskUnits="userSpaceOnUse" x="0" y="0" width="65" height="65">
      <path d="M65 0H0V65H65V0Z" fill="white"/>
    </mask>
    <g mask="url(#mask0_163_2000)">
      <path d="M32.5001 64.0251C49.9109 64.0251 64.0251 49.9109 64.0251 32.5001C64.0251 15.0893 49.9109 0.975098 32.5001 0.975098C15.0893 0.975098 0.975098 15.0893 0.975098 32.5001C0.975098 49.9109 15.0893 64.0251 32.5001 64.0251Z" fill="url(#paint0_linear_163_2000)"/>
      <path d="M46.2962 45.0611L35.6362 19.2887C35.0349 17.9562 34.1412 17.3062 32.963 17.3062H32.0205C30.8424 17.3062 29.9487 17.9562 29.3474 19.2887L24.708 30.5174H21.198C20.1499 30.5255 19.2968 31.3705 19.2887 32.4268V32.4512C19.2968 33.4993 20.1499 34.3524 21.198 34.3605H23.083L18.6549 45.0611C18.5737 45.2968 18.5249 45.5405 18.5249 45.7924C18.5249 46.3936 18.7118 46.8649 19.0449 47.2305C19.378 47.5962 19.8574 47.7749 20.4587 47.7749C20.8568 47.7668 21.2387 47.6449 21.5555 47.4093C21.8968 47.1737 22.1324 46.8324 22.3193 46.4424L27.1943 34.3524H30.5743C31.6224 34.3443 32.4755 33.4993 32.4837 32.443V32.3943C32.4755 31.3462 31.6224 30.493 30.5743 30.4849H28.7705L32.4918 21.2143L42.6318 46.4343C42.8187 46.8243 43.0543 47.1655 43.3955 47.4012C43.7124 47.6368 44.1024 47.7587 44.4924 47.7668C45.0936 47.7668 45.5649 47.588 45.9062 47.2224C46.2474 46.8568 46.4262 46.3855 46.4262 45.7843C46.4343 45.5405 46.3937 45.2886 46.2962 45.0611Z" fill="white"/>
    </g>
  </g>
  <defs>
    <linearGradient id="paint0_linear_163_2000" x1="56.0047" y1="12.7227" x2="9.09548" y2="52.192" gradientUnits="userSpaceOnUse">
      <stop stop-color="#B6509E"/>
      <stop offset="1" stop-color="#2EBAC6"/>
    </linearGradient>
    <clipPath id="clip0_163_2000">
      <rect width="65" height="65" fill="white"/>
    </clipPath>
  </defs>
</svg>