<svg width="156" height="177" viewBox="0 0 156 177" fill="none" xmlns="http://www.w3.org/2000/svg">
<path d="M143.012 150.19C143.012 164.443 111.152 176 71.8537 176C32.5556 176 0.695312 164.443 0.695312 150.19C0.695312 150.08 0.698852 149.967 0.702391 149.857V118.862H142.994V149.659C143.008 149.836 143.012 150.013 143.012 150.19Z" fill="#F8C810" stroke="black" stroke-width="0.7" stroke-miterlimit="10"/>
<path d="M71.8541 143.854C111.154 143.854 143.012 132.299 143.012 118.044C143.012 103.79 111.154 92.2341 71.8541 92.2341C32.5545 92.2341 0.695801 103.79 0.695801 118.044C0.695801 132.299 32.5545 143.854 71.8541 143.854Z" fill="white" stroke="black" stroke-width="0.7" stroke-miterlimit="10"/>
<ellipse cx="74.997" cy="125.211" rx="21.248" ry="2.85193" fill="#7B7979"/>
<path d="M130.225 26.2787L129.585 39.4356L126.223 39.2722L126.863 26.1152L130.225 26.2787ZM121.741 30.7623L134.872 31.4008L134.708 34.7623L121.578 34.1238L121.741 30.7623Z" fill="#F8C810"/>
<path d="M130.461 26.1601L130.465 26.0602L130.366 26.0554L126.745 25.8793L126.645 25.8745L126.64 25.9744L126.408 30.7591L121.623 30.5264L121.523 30.5216L121.518 30.6215L121.342 34.242L121.337 34.3419L121.437 34.3468L126.222 34.5794L125.988 39.3905L125.983 39.4903L126.083 39.4952L129.703 39.6712L129.803 39.6761L129.808 39.5762L130.042 34.7652L134.827 34.9979L134.927 35.0027L134.932 34.9028L135.108 31.2823L135.113 31.1824L135.013 31.1775L130.228 30.9449L130.461 26.1601ZM126.621 31.0996L126.721 31.1044L126.726 31.0046L126.958 26.2198L130.12 26.3736L129.887 31.1583L129.883 31.2582L129.982 31.263L134.767 31.4957L134.613 34.6574L129.829 34.4247L129.729 34.4199L129.724 34.5198L129.49 39.3308L126.328 39.177L126.562 34.366L126.567 34.2661L126.467 34.2613L121.682 34.0286L121.836 30.8669L126.621 31.0996Z" fill="black" stroke="#262626" stroke-width="0.2"/>
<path d="M15.6494 83.2479L16.4256 95.3445L13.3351 95.5429L12.5588 83.4462L15.6494 83.2479ZM8.35605 88.2254L20.4286 87.4507L20.6269 90.5412L8.55437 91.3159L8.35605 88.2254Z" fill="#F8C810"/>
<path d="M15.861 83.1149L15.8546 83.0151L15.7548 83.0215L12.426 83.2351L12.3262 83.2415L12.3326 83.3413L12.6144 87.7325L8.22318 88.0142L8.12339 88.0206L8.12979 88.1204L8.3434 91.4492L8.3498 91.549L8.44959 91.5426L12.8408 91.2608L13.1241 95.6762L13.1305 95.776L13.2303 95.7696L16.5591 95.556L16.6589 95.5496L16.6525 95.4498L16.3692 91.0344L20.7603 90.7527L20.8601 90.7462L20.8537 90.6465L20.6401 87.3177L20.6337 87.2179L20.5339 87.2243L16.1428 87.506L15.861 83.1149ZM12.8537 88.0371L12.9535 88.0307L12.9471 87.9309L12.6653 83.5397L15.5563 83.3542L15.8381 87.7454L15.8445 87.8452L15.9443 87.8388L20.3355 87.557L20.521 90.448L16.1298 90.7298L16.03 90.7362L16.0364 90.836L16.3197 95.2513L13.4288 95.4368L13.1454 91.0215L13.139 90.9217L13.0392 90.9281L8.64805 91.2099L8.46254 88.3189L12.8537 88.0371Z" fill="black" stroke="#262626" stroke-width="0.2"/>
<g clip-path="url(#clip0_36040_12526)">
<path d="M21.1135 4.21354L19.0887 3.41406L18.9806 3.6882C14.2414 3.16433 9.14803 6.67853 6.8883 12.4014C4.62858 18.1243 5.94665 24.1703 9.76496 27.0256L9.65684 27.2998L11.6816 28.0993C16.9335 30.173 23.3023 26.5071 25.9068 19.9114C28.5114 13.3155 26.3653 6.28725 21.1135 4.21354Z" fill="#F7D959"/>
<path d="M21.113 4.21329L19.0882 3.41381L18.9801 3.68795C14.2409 3.16408 9.14754 6.67829 6.88782 12.4012C4.62809 18.124 5.94616 24.1701 9.76447 27.0254L9.65635 27.2995L11.6812 28.099C16.933 30.1727 23.3019 26.5068 25.9064 19.9112C28.5109 13.3152 26.3649 6.28701 21.113 4.21329Z" fill="#F47C06"/>
<path d="M11.652 28.1738L9.55248 27.3449L9.66774 27.0528C7.81391 25.645 6.50106 23.4288 5.96867 20.8047C5.7011 19.4866 5.63354 18.1026 5.76751 16.6916C5.90629 15.2318 6.25818 13.7785 6.81367 12.3719C7.36916 10.9653 8.10494 9.66355 9.00109 8.50278C9.86726 7.38084 10.8622 6.41645 11.958 5.63674C14.1396 4.08466 16.6123 3.36299 18.928 3.6018L19.0432 3.31001L21.1427 4.13896C22.4388 4.65071 23.5701 5.46592 24.5052 6.56159C25.4072 7.61871 26.0896 8.89089 26.5329 10.3432C27.4435 13.3253 27.2478 16.7339 25.9814 19.9407C24.7149 23.1475 22.5293 25.7703 19.8269 27.326C18.5109 28.0835 17.1435 28.5466 15.7625 28.7021C14.8226 28.808 13.9032 28.7678 13.016 28.5827C12.5521 28.4859 12.0968 28.3496 11.652 28.1738ZM21.0838 4.28809L19.1337 3.51808L19.0324 3.77449L18.9715 3.76762C16.6775 3.51424 14.2198 4.2243 12.0511 5.76752C10.9683 6.53803 9.98473 7.49141 9.12819 8.60094C8.24128 9.74974 7.51292 11.0381 6.96306 12.4308C6.41321 13.8235 6.06473 15.262 5.9275 16.7066C5.79498 18.1019 5.86179 19.47 6.12601 20.7726C6.65538 23.3811 7.96488 25.5789 9.81316 26.961L9.86221 26.9978L9.76089 27.2542L11.711 28.0242C12.9825 28.5262 14.3396 28.7006 15.7446 28.5421C17.1034 28.389 18.4499 27.9329 19.747 27.1864C22.4182 25.6489 24.5793 23.0546 25.8321 19.8813C27.0852 16.7081 27.2795 13.3372 26.3793 10.3895C25.9423 8.95841 25.2708 7.70545 24.383 6.66518C23.4652 5.58957 22.3551 4.78977 21.0837 4.2875L21.0838 4.28809Z" fill="black"/>
<path d="M23.8817 19.111C26.486 12.5151 24.3397 5.48708 19.0878 3.41347C13.8359 1.33985 7.46717 5.00587 4.8629 11.6018C2.25864 18.1977 4.40497 25.2257 9.65688 27.2993C14.9088 29.3729 21.2775 25.7069 23.8817 19.111Z" fill="#FFA500"/>
<path d="M9.62741 27.3748C8.33131 26.8631 7.19997 26.0479 6.26488 24.9522C5.36295 23.8951 4.68063 22.6227 4.23717 21.1706C3.3267 18.1882 3.52243 14.7796 4.78884 11.5728C6.05524 8.36599 8.24091 5.7432 10.9432 4.1878C12.2592 3.43034 13.6266 2.96721 15.0076 2.8117C16.4389 2.65033 17.8221 2.82797 19.1179 3.3399C20.414 3.85166 21.5453 4.66687 22.4804 5.76254C23.3823 6.81965 24.0646 8.09209 24.5081 9.54414C25.4187 12.5263 25.2229 15.9349 23.9565 19.1417C22.6901 22.3485 20.5044 24.9713 17.802 26.5269C16.486 27.2844 15.1186 27.7475 13.7377 27.9031C12.7977 28.0089 11.8783 27.9688 10.9911 27.7837C10.5272 27.6868 10.0723 27.5506 9.62741 27.3748ZM15.0257 2.97117C13.6669 3.12425 12.3202 3.5806 11.0233 4.32685C8.35207 5.8644 6.19099 8.45871 4.93797 11.6317C3.68488 14.8049 3.49054 18.176 4.39074 21.1234C4.82775 22.5545 5.49927 23.8075 6.3871 24.8478C7.30487 25.9234 8.41497 26.7232 9.68634 27.2255C10.9578 27.7275 12.3149 27.9019 13.7199 27.7434C15.0787 27.5903 16.4253 27.1342 17.7223 26.3877C20.3935 24.8502 22.5546 22.2559 23.8075 19.0826C25.0606 15.9093 25.2548 12.5385 24.3547 9.5908C23.9177 8.15969 23.2462 6.90673 22.3583 5.86646C21.4406 4.79085 20.3305 3.99105 19.0591 3.48878C18.6229 3.31648 18.1764 3.18284 17.7216 3.08799C16.8507 2.9064 15.9487 2.86681 15.0255 2.97083L15.0257 2.97117Z" fill="black"/>
<path d="M22.7057 18.6466C25.0809 12.6309 23.2754 6.28107 18.673 4.4639C14.0706 2.64673 8.41416 6.05033 6.03896 12.0661C3.66376 18.0818 5.46926 24.4316 10.0716 26.2488C14.674 28.0659 20.3305 24.6623 22.7057 18.6466Z" fill="#F47C06"/>
<path d="M22.7277 18.5404C25.1029 12.5247 23.2974 6.17487 18.695 4.3577C14.0926 2.54053 8.43613 5.94413 6.06093 11.9599C3.68573 17.9756 5.49123 24.3254 10.0936 26.1426C14.696 27.9597 20.3525 24.5561 22.7277 18.5404Z" fill="#FFA500"/>
<path d="M10.0646 26.218C8.9268 25.7687 7.93811 25.0419 7.12641 24.0575C6.34357 23.1084 5.75742 21.9615 5.38405 20.6483C4.61763 17.9527 4.83182 14.8569 5.98716 11.9311C7.14249 9.00536 9.10113 6.59842 11.5025 5.15376C12.6724 4.44995 13.8841 4.0127 15.104 3.85468C16.3694 3.69067 17.5878 3.8351 18.7255 4.28435C19.8633 4.7336 20.852 5.46041 21.6637 6.44483C22.4465 7.39395 23.0327 8.54083 23.406 9.85408C24.1724 12.5496 23.9583 15.6454 22.8029 18.5712C21.6477 21.4967 19.6887 23.9039 17.2876 25.3486C16.1177 26.0524 14.906 26.4897 13.686 26.6477C12.8384 26.7574 12.0119 26.7289 11.2168 26.5632C10.8247 26.4813 10.4403 26.3663 10.0646 26.218ZM11.585 5.29106C9.21368 6.7178 7.27863 9.0968 6.13629 11.99C4.99396 14.8832 4.78144 17.9424 5.5383 20.6044C6.29301 23.2587 7.92115 25.1991 10.1234 26.0689C12.3258 26.9384 14.8405 26.634 17.2048 25.2112C19.5761 23.7845 21.5112 21.4055 22.6535 18.5123C23.7959 15.6191 24.0084 12.5598 23.2515 9.8979C22.4968 7.2436 20.8684 5.30309 18.6664 4.43341C18.2982 4.28796 17.9211 4.17549 17.5377 4.09542C15.6274 3.69709 13.554 4.10621 11.585 5.29106Z" fill="black"/>
<path style="mix-blend-mode:multiply" d="M6.55799 12.2713C8.88847 6.36948 14.3766 2.9857 18.9297 4.57579C18.8446 4.53815 18.7608 4.49921 18.6737 4.46483C14.0713 2.64771 8.41486 6.05103 6.03939 12.0666C3.66391 18.0822 5.46922 24.4322 10.0718 26.2494C10.159 26.2838 10.247 26.3126 10.3344 26.3432C5.92332 24.3938 4.22752 18.1732 6.55799 12.2713Z" fill="url(#paint0_radial_36040_12526)"/>
<path d="M16.3038 11.2691L18.9081 14.3876L18.5156 15.4438L14.3409 16.089L14.0638 16.8317L18.9793 16.0001L19.6248 14.2629L16.5549 10.586L11.1365 11.5209L9.1825 16.7778L9.64323 17.3423L11.599 12.0808L16.3038 11.2691Z" fill="white"/>
<path d="M17.5305 14.4755L14.7705 14.9367L14.5354 15.5679L18.1588 15.0079L18.3538 14.4836L16.1101 11.7969L11.9571 12.5134L9.99951 17.7803L10.4602 18.3448L12.4209 13.0693L15.8607 12.4758L17.5305 14.4755Z" fill="white"/>
<path d="M18.1811 16.6259L17.5288 16.7374L18.1725 17.7002L17.5019 19.5039L12.9441 20.3108L11.5805 18.6471L13.5386 13.3795L12.8231 13.5002L10.8662 18.7642L12.6917 20.9923L17.9666 20.0585L18.8815 17.597L18.1811 16.6259Z" fill="white"/>
<path d="M13.1389 19.7841L17.1425 19.0756L17.6294 17.7654L17.0032 16.8289L16.3619 16.9389L16.9216 17.865L16.6791 18.5174L13.3925 19.0991L12.8482 18.4352L14.8068 13.1665L14.0912 13.2876L12.1326 18.5563L13.1389 19.7841Z" fill="white"/>
</g>
<g clip-path="url(#clip1_36040_12526)">
<path d="M134.646 70.8447L132.648 71.7438L132.769 72.0143C129.063 75.065 128.021 81.2072 130.562 86.8565C133.103 92.5058 138.39 95.8013 143.132 95.0522L143.254 95.3228L145.252 94.4237C150.437 92.0916 152.265 84.9228 149.337 78.4118C146.408 71.9005 139.831 68.5126 134.646 70.8447Z" fill="#F7D959"/>
<path d="M134.646 70.8447L132.648 71.7438L132.769 72.0143C129.063 75.065 128.021 81.2072 130.562 86.8565C133.103 92.5058 138.39 95.8013 143.132 95.0522L143.254 95.3228L145.252 94.4237C150.437 92.0916 152.265 84.9228 149.337 78.4118C146.408 71.9005 139.831 68.5126 134.646 70.8447Z" fill="#F47C06"/>
<path d="M145.285 94.4974L143.213 95.4297L143.083 95.1414C140.766 95.4899 138.245 94.8806 135.978 93.4216C134.839 92.6889 133.793 91.7656 132.87 90.678C131.914 89.5527 131.113 88.2782 130.488 86.8896C129.864 85.501 129.442 84.056 129.234 82.5944C129.033 81.1816 129.036 79.7866 129.243 78.4486C129.656 75.7848 130.872 73.4942 132.67 71.9915L132.541 71.7035L134.613 70.7712C135.892 70.1957 137.275 69.9521 138.722 70.0471C140.118 70.1389 141.515 70.5401 142.874 71.2402C145.665 72.6778 147.986 75.2129 149.41 78.3786C150.834 81.5443 151.191 84.963 150.415 88.005C150.037 89.4862 149.411 90.7979 148.553 91.9033C147.969 92.6557 147.295 93.2907 146.538 93.8006C146.143 94.0673 145.724 94.2999 145.285 94.4974ZM134.679 70.9184L132.754 71.7843L132.868 72.0375L132.82 72.0766C131.026 73.5534 129.813 75.825 129.403 78.4732C129.198 79.7955 129.195 81.1745 129.394 82.5716C129.6 84.0182 130.017 85.4485 130.636 86.8232C131.254 88.198 132.047 89.4596 132.993 90.5732C133.906 91.6487 134.94 92.5614 136.065 93.2856C138.319 94.7357 140.824 95.3346 143.119 94.9721L143.18 94.9625L143.294 95.2156L145.219 94.3497C146.474 93.7851 147.553 92.9287 148.425 91.8038C149.269 90.7161 149.886 89.4245 150.258 87.9646C151.025 84.9578 150.671 81.5769 149.262 78.4445C147.853 75.312 145.558 72.8045 142.8 71.3836C141.46 70.6937 140.085 70.2982 138.711 70.208C137.291 70.1146 135.934 70.3537 134.679 70.918L134.679 70.9184Z" fill="black"/>
<path d="M147.337 79.3098C144.408 72.7988 137.831 69.4112 132.646 71.7433C127.462 74.0755 125.634 81.2443 128.563 87.7553C131.492 94.2662 138.069 97.6538 143.253 95.3217C148.438 92.9895 150.266 85.8208 147.337 79.3098Z" fill="#FFA500"/>
<path d="M143.287 95.3959C142.008 95.9715 140.625 96.215 139.178 96.1201C137.782 96.0283 136.385 95.6268 135.026 94.9269C132.235 93.4891 129.914 90.954 128.49 87.7883C127.066 84.6226 126.709 81.2039 127.485 78.1622C127.863 76.6809 128.489 75.3693 129.347 74.2639C130.236 73.1181 131.335 72.2451 132.615 71.6699C133.894 71.0944 135.277 70.8508 136.724 70.9458C138.12 71.0376 139.517 71.439 140.876 72.1389C143.666 73.5765 145.988 76.1116 147.411 79.2773C148.835 82.443 149.192 85.8617 148.416 88.9036C148.039 90.3849 147.412 91.6966 146.555 92.802C145.971 93.5543 145.296 94.1894 144.54 94.6993C144.144 94.966 143.726 95.1985 143.287 95.3959ZM129.474 74.3629C128.631 75.4505 128.014 76.7424 127.642 78.2021C126.875 81.2088 127.228 84.5898 128.637 87.722C130.046 90.8546 132.341 93.3623 135.1 94.783C136.439 95.4728 137.814 95.8684 139.188 95.9586C140.609 96.0519 141.965 95.8129 143.221 95.2485C144.476 94.6839 145.555 93.8275 146.427 92.7026C147.271 91.6149 147.888 90.3233 148.26 88.8634C149.027 85.8566 148.673 82.4757 147.264 79.3433C145.855 76.2108 143.56 73.7033 140.802 72.2824C139.462 71.5925 138.087 71.197 136.713 71.1068C135.292 71.0134 133.936 71.2525 132.681 71.8168C132.25 72.0105 131.84 72.2387 131.452 72.5001C130.709 73.0009 130.047 73.6237 129.474 74.3627L129.474 74.3629Z" fill="black"/>
<path d="M146.176 79.8326C143.505 73.8943 137.656 70.7372 133.113 72.7809C128.57 74.8246 127.052 81.2953 129.724 87.2336C132.395 93.1719 138.243 96.3291 142.787 94.2853C147.33 92.2416 148.847 85.7709 146.176 79.8326Z" fill="#F47C06"/>
<path d="M146.115 79.7418C143.443 73.8035 137.595 70.6463 133.052 72.6901C128.509 74.7338 126.991 81.2045 129.663 87.1428C132.334 93.0811 138.182 96.2382 142.726 94.1945C147.269 92.1508 148.786 85.6801 146.115 79.7418Z" fill="#FFA500"/>
<path d="M142.759 94.2693C141.636 94.7745 140.418 94.9772 139.137 94.8714C137.903 94.7695 136.664 94.3869 135.454 93.7339C132.972 92.3936 130.889 90.0649 129.59 87.1767C128.291 84.2884 127.93 81.1851 128.574 78.4383C128.888 77.1001 129.424 75.919 130.167 74.9279C130.937 73.9 131.897 73.1225 133.02 72.6173C134.143 72.1121 135.362 71.9094 136.642 72.0152C137.877 72.1171 139.116 72.4998 140.325 73.1527C142.808 74.493 144.891 76.8217 146.19 79.71C147.489 82.5979 147.849 85.7016 147.205 88.4483C146.891 89.7865 146.356 90.9677 145.613 91.9587C145.097 92.6472 144.496 93.2233 143.818 93.6805C143.483 93.9058 143.13 94.1024 142.759 94.2693ZM128.731 78.4752C128.095 81.1878 128.452 84.2545 129.737 87.1104C131.022 89.9664 133.079 92.2682 135.531 93.5918C137.976 94.9115 140.519 95.0998 142.693 94.1221C144.867 93.1441 146.414 91.1163 147.048 88.4115C147.684 85.6989 147.327 82.6323 146.042 79.7763C144.757 76.9204 142.7 74.6185 140.248 73.295C137.803 71.9752 135.26 71.787 133.086 72.7647C132.723 72.9281 132.377 73.1212 132.05 73.3415C130.421 74.4398 129.26 76.2227 128.731 78.4752Z" fill="black"/>
<path style="mix-blend-mode:multiply" d="M130.236 87.0031C127.616 81.177 129.029 74.8416 133.374 72.674C133.287 72.7089 133.2 72.742 133.114 72.7807C128.571 74.8245 127.053 81.295 129.724 87.2334C132.395 93.1718 138.244 96.3292 142.787 94.2853C142.873 94.2466 142.956 94.2033 143.039 94.1617C138.535 95.9747 132.857 92.8291 130.236 87.0031Z" fill="url(#paint1_radial_36040_12526)"/>
<path d="M136.358 79.2702L140.437 79.5818L140.923 80.6067L138.457 84.0712L138.798 84.7927L141.65 80.6629L140.85 78.9772L136.042 78.6093L132.911 83.1745L135.331 88.2761L136.061 88.3402L133.64 83.2342L136.358 79.2702Z" fill="white"/>
<path d="M139.533 80.6372L137.927 82.9521L138.217 83.565L140.358 80.5579L140.117 80.049L136.603 79.7806L134.203 83.2796L136.627 88.3907L137.358 88.4549L134.93 83.3355L136.917 80.4373L139.533 80.6372Z" fill="white"/>
<path d="M141.541 81.6781L141.163 82.2269L142.31 82.4388L143.14 84.1893L140.521 88.0438L138.363 87.859L135.939 82.747L135.523 83.3479L137.946 88.4565L140.835 88.7044L143.866 84.2436L142.733 81.8549L141.541 81.6781Z" fill="white"/>
<path d="M140.278 87.5339L142.579 84.1482L141.976 82.8769L140.86 82.6709L140.489 83.2107L141.55 83.4574L141.851 84.0905L139.962 86.8698L139.101 86.7962L136.676 81.6831L136.261 82.2843L138.686 87.3974L140.278 87.5339Z" fill="white"/>
</g>
<g clip-path="url(#clip2_36040_12526)">
<path d="M65.6882 51.2605C69.0029 51.2605 72.0884 51.2714 75.1703 51.2569C76.2582 51.2532 77.3607 51.2751 78.4341 51.1259C80.2861 50.8711 82.1818 50.6782 83.9538 50.1287C88.9132 48.593 91.4675 44.3607 90.9799 38.822C90.5433 33.8873 87.5524 30.6413 82.3419 30.1354C77.8374 29.6987 73.2819 29.7679 68.7482 29.6259C67.744 29.5932 66.7361 29.6223 65.6882 29.6223V51.2605ZM90.2085 15.7755C100.695 17.5914 108.387 22.657 110.017 33.578C111.709 44.9248 106.236 52.6143 95.6627 57.1959C96.5942 57.5089 97.2492 57.7309 97.9041 57.9492C111.363 62.4799 117.181 76.4032 110.948 89.2347C107.186 96.9751 100.746 101.146 92.5299 102.892C91.8241 103.042 91.1145 103.18 90.2413 103.354V116.175H77.9611V104.235H69.6215V116.171H57.2649V104.119H36.5469V91.7202C38.2352 91.7202 39.9162 91.7966 41.5827 91.702C44.4535 91.5383 45.5814 90.381 45.7816 87.5134C45.8616 86.3671 45.8653 85.2098 45.8653 84.0599C45.8689 67.7494 45.8689 51.4388 45.8653 35.1246C45.8653 34.4587 45.8653 33.7891 45.8398 33.1231C45.687 28.7344 44.5372 27.6281 40.0727 27.5844C38.9374 27.5735 37.7985 27.5844 36.5542 27.5844V15.3206H57.1339V3.29691H69.4505V15.1313H77.8774V3.26416H90.2013V15.7755H90.2085ZM65.59 64.0702C65.59 65.6132 65.5827 66.7522 65.59 67.8876C65.6373 74.307 65.6809 80.7264 65.7391 87.1459C65.7537 88.6597 66.3286 89.8315 68.0387 89.8024C72.7543 89.7296 77.5063 89.897 82.1746 89.373C88.4657 88.667 92.4863 83.514 92.6427 76.7634C92.7919 70.355 89.4117 65.7879 82.9787 64.9472C77.3171 64.2048 71.5427 64.3359 65.5863 64.0702H65.59Z" fill="url(#paint2_linear_36040_12526)" stroke="black" stroke-width="0.7" stroke-miterlimit="10"/>
</g>
<defs>
<radialGradient id="paint0_radial_36040_12526" cx="0" cy="0" r="1" gradientUnits="userSpaceOnUse" gradientTransform="translate(10.3208 13.797) rotate(21.5457) scale(8.90151 11.75)">
<stop offset="0.02" stop-color="white" stop-opacity="0"/>
<stop offset="1" stop-color="#EDAC46"/>
</radialGradient>
<radialGradient id="paint1_radial_36040_12526" cx="0" cy="0" r="1" gradientUnits="userSpaceOnUse" gradientTransform="translate(133.979 85.3602) rotate(-24.2206) scale(8.96182 11.8296)">
<stop offset="0.02" stop-color="white" stop-opacity="0"/>
<stop offset="1" stop-color="#EDAC46"/>
</radialGradient>
<linearGradient id="paint2_linear_36040_12526" x1="74.9976" y1="3.26416" x2="74.9976" y2="116.175" gradientUnits="userSpaceOnUse">
<stop stop-color="#F8C810"/>
<stop offset="1" stop-color="#FFA500"/>
</linearGradient>
<clipPath id="clip0_36040_12526">
<rect width="22.8179" height="25.9865" fill="white" transform="translate(8.26074 0.000244141) rotate(16.9557)"/>
</clipPath>
<clipPath id="clip1_36040_12526">
<rect width="22.9725" height="26.1626" fill="white" transform="translate(122.581 77.1572) rotate(-28.8106)"/>
</clipPath>
<clipPath id="clip2_36040_12526">
<rect width="77.2651" height="113.275" fill="white" transform="translate(36.3647 3.08203)"/>
</clipPath>
</defs>
</svg>
