<svg width="204" height="196" viewBox="0 0 204 196" fill="none" xmlns="http://www.w3.org/2000/svg">
<g clip-path="url(#clip0_36029_11409)">
<ellipse cx="101.072" cy="183.644" rx="19.5725" ry="4.28908" fill="#7B7979"/>
<path d="M193.851 50.7407L181.4 76.3255L134.499 77.5178L135.371 75.7L146.608 52.274L193.851 50.7407Z" fill="#CC00FF" stroke="black" stroke-width="0.7" stroke-miterlimit="10" stroke-linejoin="round"/>
<path d="M202.892 93.2105L190.611 118.285L181.4 76.3255L193.851 50.7407L202.892 93.2105Z" fill="#9705BB" stroke="black" stroke-width="0.7" stroke-miterlimit="10" stroke-linejoin="round"/>
<path d="M190.611 118.285L155.779 120.119L143.167 120.847L138.814 98.9168L134.499 77.5178L181.4 76.3254L190.611 118.285Z" fill="#E57BFF" stroke="black" stroke-width="0.7" stroke-miterlimit="10" stroke-linejoin="round"/>
<path d="M138.948 98.9883L138.933 98.9109" stroke="#FF0DFF" stroke-width="0.834506" stroke-miterlimit="10"/>
<path d="M133.351 39.6357L122.903 72.4665L96.498 90.7049L108.245 56.596L133.351 39.6357Z" fill="#6534D9" stroke="black" stroke-width="0.7" stroke-miterlimit="10" stroke-linejoin="round"/>
<path d="M133.35 39.6359L108.244 56.5961L73.5713 33.0049L98.3928 15.9504L133.35 39.6359Z" fill="#7E4EF0" stroke="black" stroke-width="0.7" stroke-miterlimit="10" stroke-linejoin="round"/>
<path d="M108.245 56.5959L96.4979 90.7048L63.519 69.4479L73.5715 33.0046L108.245 56.5959Z" fill="#9D75FC" stroke="black" stroke-width="0.7" stroke-miterlimit="10" stroke-linejoin="round"/>
<path d="M88.7774 74.2275L52.8723 77.1644L17.4399 51.2052L53.5354 48.4565L77.2483 65.7955L80.9254 68.4855L82.3707 69.5439L88.7774 74.2275Z" fill="#3B7CFE" stroke="black" stroke-width="0.7" stroke-miterlimit="10" stroke-linejoin="round"/>
<path d="M52.8723 77.1645L36.9236 122.881L0.127441 97.6474L17.4399 51.2053L52.8723 77.1645Z" fill="#80ABFF" stroke="black" stroke-width="0.7" stroke-miterlimit="10" stroke-linejoin="round"/>
<path d="M88.7772 74.2275L71.3266 121.149L36.9233 122.881L52.8721 77.1644L88.7772 74.2275Z" fill="#2257C3" stroke="black" stroke-width="0.7" stroke-miterlimit="10" stroke-linejoin="round"/>
<mask id="path-12-inside-1_36029_11409" fill="white">
<path d="M17.5866 110.782C17.5866 110.782 14.4722 113.307 13.3741 115.505C12.276 117.704 10.4437 122.686 14.3258 130.821C18.2079 138.956 27.0032 144.378 32.5711 145.11C38.1391 145.843 40.5591 144.598 42.3893 143.132C44.2195 141.665 45.5351 140.117 45.5351 140.117"/>
</mask>
<path d="M17.5866 110.782C17.5866 110.782 14.4722 113.307 13.3741 115.505C12.276 117.704 10.4437 122.686 14.3258 130.821C18.2079 138.956 27.0032 144.378 32.5711 145.11C38.1391 145.843 40.5591 144.598 42.3893 143.132C44.2195 141.665 45.5351 140.117 45.5351 140.117" fill="#BE9807"/>
<path d="M17.5866 110.782C17.1458 110.238 17.1457 110.238 17.1456 110.238C17.1456 110.238 17.1455 110.238 17.1454 110.239C17.1452 110.239 17.145 110.239 17.1447 110.239C17.1442 110.24 17.1434 110.24 17.1425 110.241C17.1406 110.242 17.138 110.245 17.1347 110.247C17.128 110.253 17.1184 110.261 17.1061 110.271C17.0814 110.291 17.0458 110.321 17.0005 110.359C16.9098 110.435 16.78 110.545 16.6214 110.684C16.3044 110.962 15.8701 111.356 15.3999 111.822C14.4758 112.736 13.3515 113.984 12.7478 115.192L14.0003 115.818C14.4948 114.828 15.4768 113.715 16.3844 112.817C16.8301 112.376 17.243 112.001 17.5443 111.737C17.6948 111.605 17.817 111.501 17.9009 111.431C17.9428 111.396 17.9752 111.369 17.9967 111.351C18.0075 111.342 18.0155 111.335 18.0207 111.331C18.0233 111.329 18.0251 111.328 18.0263 111.327C18.0268 111.326 18.0272 111.326 18.0274 111.326C18.0275 111.326 18.0276 111.326 18.0276 111.326C18.0276 111.326 18.0275 111.326 18.0276 111.326C18.0275 111.326 18.0275 111.326 17.5866 110.782ZM12.7478 115.192C12.1698 116.35 11.3986 118.243 11.283 120.907C11.1674 123.571 11.709 126.963 13.694 131.123L14.9575 130.52C13.0604 126.545 12.5771 123.378 12.6817 120.967C12.7863 118.557 13.4802 116.859 14.0003 115.818L12.7478 115.192ZM13.694 131.123C15.6955 135.317 18.9514 138.791 22.4039 141.308C25.8483 143.818 29.5476 145.419 32.4799 145.804L32.6624 144.416C30.0268 144.07 26.5444 142.593 23.2286 140.176C19.9209 137.765 16.8381 134.461 14.9575 130.52L13.694 131.123ZM32.4799 145.804C35.3255 146.179 37.4185 146.055 39.0602 145.622C40.7124 145.187 41.8617 144.451 42.827 143.678L41.9516 142.585C41.0867 143.278 40.1109 143.898 38.7036 144.269C37.2857 144.642 35.3847 144.774 32.6624 144.416L32.4799 145.804ZM42.827 143.678C43.7704 142.922 44.5781 142.148 45.149 141.564C45.435 141.272 45.6629 141.026 45.8202 140.852C45.8988 140.765 45.9599 140.696 46.0018 140.648C46.0227 140.624 46.0389 140.605 46.0501 140.592C46.0557 140.586 46.06 140.581 46.0631 140.577C46.0646 140.575 46.0659 140.574 46.0668 140.573C46.0672 140.572 46.0676 140.572 46.0679 140.571C46.068 140.571 46.0681 140.571 46.0683 140.571C46.0683 140.571 46.0684 140.571 46.0684 140.571C46.0685 140.571 46.0685 140.571 45.5351 140.117C45.0018 139.664 45.0018 139.664 45.0018 139.664C45.0019 139.664 45.0019 139.664 45.0019 139.664C45.0019 139.664 45.0019 139.664 45.0019 139.664C45.0019 139.664 45.0018 139.664 45.0016 139.664C45.0012 139.665 45.0005 139.665 44.9995 139.667C44.9975 139.669 44.9942 139.673 44.9897 139.678C44.9808 139.688 44.9669 139.704 44.9483 139.726C44.9111 139.768 44.855 139.832 44.7818 139.913C44.6351 140.075 44.4198 140.307 44.1481 140.585C43.6036 141.142 42.8384 141.875 41.9516 142.585L42.827 143.678Z" fill="black" mask="url(#path-12-inside-1_36029_11409)"/>
<path d="M33.2195 121.898L30.4481 122.396L28.2456 117.988C28.2456 117.988 28.8124 117.777 30.3059 117.635C31.7993 117.492 32.5795 118.201 33.2906 119.624C34.0018 121.046 33.2195 121.898 33.2195 121.898Z" stroke="#FF0DFF" stroke-width="0.7" stroke-miterlimit="10" stroke-linejoin="round"/>
<path d="M39.049 127.159C40.1847 129.008 38.9779 130.286 38.9779 130.286L34.4285 130.997L32.0127 125.452C32.0127 125.452 34.4285 124.885 35.7086 124.885C36.9887 124.885 37.9111 125.311 39.049 127.159Z" stroke="#FF0DFF" stroke-width="0.7" stroke-miterlimit="10" stroke-linejoin="round"/>
<path d="M42.7071 114.945C41.6968 113.867 40.6322 112.89 39.532 112.022C32.2677 106.276 23.4473 105.138 18.5047 109.769C12.8155 115.104 14.4239 126.067 22.1003 134.258C29.7745 142.448 40.6113 144.765 46.3005 139.431C51.9919 134.097 50.3834 123.134 42.7071 114.945ZM44.4766 137.241C39.6638 141.753 30.4982 139.793 24.0057 132.865C17.5133 125.937 16.1516 116.662 20.9645 112.152C25.7774 107.64 34.9429 109.6 41.4354 116.528C47.9278 123.456 49.2895 132.729 44.4766 137.241Z" fill="#F8C810" stroke="black" stroke-width="0.7" stroke-miterlimit="10" stroke-linejoin="round"/>
<path d="M33.2195 121.898L30.4481 122.396L28.2456 117.988C28.2456 117.988 28.8124 117.777 30.3059 117.635C31.7993 117.492 32.5795 118.201 33.2906 119.624C34.0018 121.046 33.2195 121.898 33.2195 121.898Z" stroke="#FF0DFF" stroke-width="0.7" stroke-miterlimit="10" stroke-linejoin="round"/>
<path d="M39.049 127.159C40.1847 129.008 38.9779 130.286 38.9779 130.286L34.4285 130.997L32.0127 125.452C32.0127 125.452 34.4285 124.885 35.7086 124.885C36.9887 124.885 37.9111 125.311 39.049 127.159Z" stroke="#FF0DFF" stroke-width="0.7" stroke-miterlimit="10" stroke-linejoin="round"/>
<path d="M41.4355 116.528C34.9431 109.6 25.7775 107.64 20.9646 112.152C16.1517 116.662 17.5134 125.937 24.0059 132.865C30.4983 139.793 39.6639 141.753 44.4767 137.241C49.2896 132.729 47.928 123.456 41.4355 116.528ZM39.9714 132.49L40.8959 134.907L38.9067 135.262L37.7689 132.986L35.991 133.413L36.7021 135.475L34.9974 135.973L33.7885 133.626L29.8792 134.338L28.8836 131.993L30.8037 131.566L25.0454 119.339L23.0563 119.553L22.274 117.421L25.8277 116.781L24.9032 114.576L26.9655 114.15L27.8189 116.141L29.6658 115.928L28.8836 113.867L30.8037 113.512L31.6571 115.714C31.6571 115.714 34.2863 115.145 35.4241 117.137C36.5599 119.126 37.3422 121.544 35.8508 122.253C35.8508 122.253 39.689 122.182 40.8247 124.458C41.9626 126.732 44.2362 130.712 39.9714 132.49Z" fill="white" stroke="black" stroke-width="0.7" stroke-miterlimit="10" stroke-linejoin="round"/>
<path d="M40.8247 124.458C39.6889 122.182 35.8508 122.253 35.8508 122.253C37.3421 121.544 36.5598 119.126 35.4241 117.137C34.2862 115.145 31.657 115.714 31.657 115.714L30.8036 113.512L28.8835 113.867L29.6658 115.928L27.8189 116.141L26.9655 114.15L24.9031 114.576L25.8276 116.781L22.2739 117.421L23.0562 119.553L25.0453 119.339L30.8036 131.566L28.8835 131.993L29.8791 134.338L33.7884 133.626L34.9974 135.973L36.7021 135.476L35.9909 133.413L37.7688 132.986L38.9067 135.262L40.8958 134.907L39.9713 132.491C44.2362 130.713 41.9625 126.732 40.8247 124.458ZM30.4481 122.396L28.2456 117.988C28.2456 117.988 28.8124 117.777 30.3058 117.635C31.7993 117.492 32.5794 118.202 33.2906 119.624C34.0018 121.046 33.2195 121.898 33.2195 121.898L30.4481 122.396ZM38.9778 130.286L34.4285 130.997L32.0126 125.452C32.0126 125.452 34.4284 124.885 35.7085 124.885C36.9886 124.885 37.911 125.312 39.0489 127.159C40.1846 129.008 38.9778 130.286 38.9778 130.286Z" fill="#F8C810" stroke="black" stroke-width="0.7" stroke-miterlimit="10" stroke-linejoin="round"/>
<path d="M33.2195 121.898L30.4481 122.396L28.2456 117.988C28.2456 117.988 28.8124 117.777 30.3059 117.635C31.7993 117.492 32.5795 118.201 33.2906 119.624C34.0018 121.046 33.2195 121.898 33.2195 121.898Z" stroke="#FF0DFF" stroke-width="0.7" stroke-miterlimit="10" stroke-linejoin="round"/>
<path d="M38.9779 130.286L34.4285 130.997L32.0127 125.452C32.0127 125.452 34.4285 124.885 35.7086 124.885C36.9887 124.885 37.9111 125.311 39.049 127.159C40.1847 129.008 38.9779 130.286 38.9779 130.286Z" stroke="#FF0DFF" stroke-width="0.7" stroke-miterlimit="10" stroke-linejoin="round"/>
<path d="M33.2195 121.898L30.4481 122.396L28.2456 117.988C28.2456 117.988 28.8124 117.777 30.3059 117.635C31.7993 117.492 32.5795 118.201 33.2906 119.624C34.0018 121.046 33.2195 121.898 33.2195 121.898Z" fill="white" stroke="black" stroke-width="0.7" stroke-miterlimit="10" stroke-linejoin="round"/>
<path d="M38.9779 130.286L34.4285 130.997L32.0127 125.452C32.0127 125.452 34.4285 124.885 35.7086 124.885C36.9887 124.885 37.9111 125.311 39.049 127.159C40.1847 129.008 38.9779 130.286 38.9779 130.286Z" fill="white" stroke="black" stroke-width="0.7" stroke-miterlimit="10" stroke-linejoin="round"/>
<path d="M174.46 28.6681L164.761 29.373L153.598 19.186L157.174 19.0772L157.482 19.0396L166.135 26.8106L172.197 26.4508L174.46 28.6681Z" fill="black"/>
<path d="M174.46 28.6682L152.027 44.8169L164.761 29.3731L174.46 28.6682Z" fill="white" stroke="black" stroke-width="0.7" stroke-miterlimit="10" stroke-linejoin="round"/>
<path d="M164.761 29.3733L152.027 44.8171L153.598 19.1863L164.761 29.3733Z" fill="#3B7CFE" stroke="black" stroke-width="0.7" stroke-miterlimit="10" stroke-linejoin="round"/>
<path d="M177.022 0.217529L167.976 22.3174L167.294 23.9824L166.135 26.8105L157.482 19.0395L154.752 16.5879L177.022 0.217529Z" fill="#3B7CFE" stroke="black" stroke-width="0.7" stroke-miterlimit="10" stroke-linejoin="round"/>
<path d="M177.022 0.217529L175.94 26.229L172.196 26.4508L166.135 26.8105L167.294 23.9824L167.975 22.3174L177.022 0.217529Z" fill="white" stroke="black" stroke-width="0.7" stroke-miterlimit="10" stroke-linejoin="round"/>
<path d="M155.899 120.113L155.779 120.12" stroke="#FF0DFF" stroke-width="0.834506" stroke-miterlimit="10"/>
<path d="M151.39 101.577L155.487 102.609L164.662 95.5422L159.484 95.5641L151.39 101.577Z" fill="white" stroke="black" stroke-width="0.7" stroke-miterlimit="10" stroke-linejoin="round"/>
<path d="M164.736 95.5642L165.821 99.9674L157.488 106.268L157.574 103.103L155.522 102.609L164.736 95.5642Z" fill="white" stroke="black" stroke-width="0.7" stroke-miterlimit="10" stroke-linejoin="round"/>
<path d="M138.548 120.891L132.137 173.096L79.2607 160.794L85.406 108.621L138.548 120.891Z" fill="#DFFF5D" stroke="black" stroke-width="0.7" stroke-miterlimit="10" stroke-linejoin="round"/>
<path d="M158.061 103.164L138.548 120.891L85.4058 108.621L104.85 90.8826L139.182 98.8063L158.061 103.164Z" fill="#C2F200" stroke="black" stroke-width="0.7" stroke-miterlimit="10" stroke-linejoin="round"/>
<path d="M158.061 103.163L156.147 120.009L152.091 155.699L132.137 173.096L138.548 120.891L158.061 103.163Z" fill="#99BE05" stroke="black" stroke-width="0.7" stroke-miterlimit="10" stroke-linejoin="round"/>
<path d="M135.371 75.7L117.203 62.666L114.553 64.3102L134.697 78.9967L134.499 77.5178L135.371 75.7Z" fill="white" stroke="black" stroke-width="0.7" stroke-miterlimit="10" stroke-linejoin="round"/>
<path d="M135.791 83.9332L113.068 67.9833L114.553 64.3101L134.698 78.9966L135.791 83.9332Z" fill="white" stroke="black" stroke-width="0.7" stroke-miterlimit="10" stroke-linejoin="round"/>
<path d="M76.9849 65.5783L83.7825 59.1282L87.4366 61.6551L80.6224 68.2246L76.9849 65.5783Z" fill="white" stroke="black" stroke-width="0.7" stroke-miterlimit="10" stroke-linejoin="round"/>
<path d="M80.6504 68.2435L82.212 69.4216L86.305 65.3975L87.3734 61.7542L80.6504 68.2435Z" fill="white" stroke="black" stroke-width="0.7" stroke-miterlimit="10" stroke-linejoin="round"/>
<path d="M84.7845 113.796L64.9285 95.5554L61.1343 96.1118L84.3389 117.421L84.7845 113.796Z" fill="white" stroke="black" stroke-width="0.7" stroke-miterlimit="10" stroke-linejoin="round"/>
<path d="M84.3389 117.421L83.6696 123.222L59.3501 100.91L61.1343 96.1118L84.3389 117.421Z" fill="white" stroke="black" stroke-width="0.7" stroke-miterlimit="10" stroke-linejoin="round"/>
<g clip-path="url(#clip1_36029_11409)">
<path d="M62.414 26.7594C62.414 32.9805 57.3708 38.0236 51.1498 38.0236C44.9288 38.0236 39.8856 32.9805 39.8856 26.7594C39.8856 20.5384 44.9288 15.4953 51.1498 15.4953C57.3708 15.4953 62.414 20.5384 62.414 26.7594Z" fill="#CC00FF" stroke="black" stroke-width="0.7"/>
<path d="M43.0652 27.6653C42.3451 25.2264 43.3439 22.137 45.1789 20.3716C46.9443 18.6992 49.964 17.9327 52.2868 18.6295L52.7978 18.7689C53.5644 19.0012 54.4703 19.6516 54.5864 20.4413L55.0278 22.8571L50.2427 21.5795C50.0793 21.5331 49.9063 21.5324 49.7424 21.5774C49.5786 21.6225 49.4303 21.7116 49.3136 21.835L46.201 24.9476C46.0775 25.0643 45.9884 25.2127 45.9434 25.3765C45.8983 25.5403 45.899 25.7133 45.9455 25.8768L47.223 30.6618L44.2034 28.9661C43.9301 28.8456 43.6866 28.6667 43.49 28.442C43.2934 28.2172 43.1484 27.9521 43.0652 27.6653Z" fill="white"/>
<path d="M59.187 25.7614C59.9071 28.2004 58.9083 31.2897 57.0732 33.0551C55.3079 34.7275 52.2882 35.4941 49.9653 34.7972L49.4543 34.6578C48.6878 34.4256 47.7819 33.7752 47.6657 32.9854L47.2012 30.5464L51.9862 31.824C52.1496 31.8704 52.3227 31.8711 52.4865 31.8261C52.6503 31.781 52.7986 31.6919 52.9153 31.5685L56.0279 28.4559C56.1514 28.3392 56.2405 28.1908 56.2856 28.027C56.3306 27.8632 56.3299 27.6902 56.2835 27.5267L55.0059 22.7417L58.0488 24.4374C58.3227 24.563 58.5663 24.7463 58.7627 24.9749C58.9592 25.2034 59.1039 25.4717 59.187 25.7614V25.7614Z" fill="white"/>
</g>
</g>
<defs>
<clipPath id="clip0_36029_11409">
<rect width="203" height="195" fill="white" transform="translate(0.5 0.5)"/>
</clipPath>
<clipPath id="clip1_36029_11409">
<rect width="23.2283" height="23.2283" fill="white" transform="translate(39.5356 15.1453)"/>
</clipPath>
</defs>
</svg>
