<svg xmlns="http://www.w3.org/2000/svg" height="800" width="1200" viewBox="-153.6063 -256 1331.2546 1536"><g transform="translate(.02)"><linearGradient gradientTransform="matrix(1 0 0 -1 -2 1024)" y2="723.899" x2="1074.912" y1="-59.689" x1="291.324" gradientUnits="userSpaceOnUse" id="a"><stop offset="0" stop-color="#58bbea"/><stop offset=".192" stop-color="#5db3e4"/><stop offset=".49" stop-color="#699dd4"/><stop offset=".857" stop-color="#7d79ba"/><stop offset="1" stop-color="#8669ae"/></linearGradient><path d="M887.1 163.5c-4.2-4.5-8.4-9.1-12.9-13.5-4.4-4.4-9-8.6-13.5-12.9L847.8 150l-13.5 13.5-42.8 42.8-1.4 1.4-25 25-43.3 43.3-26.4 26.4c4.7 4.1 9.4 8.1 13.8 12.5s8.5 9.2 12.6 13.8C766.4 379.5 791 443.8 791 512c0 74.5-29 144.5-81.7 197.2-52.7 52.7-122.8 81.7-197.3 81.7-68.2 0-132.6-24.6-183.4-69.1l-7.2 7.2-19.2 19.2c57.9 51.6 131.6 80 209.8 80 84.5 0 163.9-32.9 223.7-92.6 59.7-59.7 92.7-139.1 92.7-223.5 0-78.2-28.5-151.8-80.1-209.7l43.3-43.3c63 69.4 97.6 158.5 97.6 253 0 100.7-39.2 195.3-110.4 266.5-71.4 71.1-166.1 110.3-266.8 110.3-94.5 0-183.6-34.5-253.1-97.5l-26.4 26.4C309 887.9 407.6 926.2 512 926.2c110.7 0 214.8-43.1 293-121.3 78.2-78.2 121.3-182.2 121.3-292.9 0-104.4-38.4-202.9-108.5-279.4l42.8-42.8c172.1 185.9 167.9 477.1-12.9 657.8-89.7 89.7-209 139-335.9 139-120.6 0-234.3-44.7-322.3-126.2L176.2 874l-12.9 12.9c95 88.5 218.1 137.1 348.7 137.1 136.8 0 265.5-53.3 362.3-150 195.3-195.2 199.5-510 12.8-710.5z" fill="url(#a)"/><linearGradient gradientTransform="matrix(1 0 0 -1 -2 1024)" y2="1053.882" x2="706.876" y1="289.342" x1="-57.664" gradientUnits="userSpaceOnUse" id="b"><stop offset="0" stop-color="#abcb37"/><stop offset=".269" stop-color="#a9cb38"/><stop offset=".424" stop-color="#a0c93b"/><stop offset=".55" stop-color="#92c741"/><stop offset=".66" stop-color="#7ec449"/><stop offset=".76" stop-color="#65c054"/><stop offset=".852" stop-color="#45bb61"/><stop offset=".938" stop-color="#20b570"/><stop offset="1" stop-color="#00b07d"/></linearGradient><path d="M790.1 207.7l1.4-1.4C715 136.2 616.4 97.8 512 97.8c-110.7 0-214.8 43.1-293 121.3C140.7 297.4 97.6 401.4 97.6 512c0 104.4 38.4 202.9 108.5 279.4l-42.8 42.8C-8.8 648.2-4.6 357 176.2 176.4c89.7-89.7 209-139 335.9-139 120.6 0 234.3 44.7 322.3 126.2l-42.8 42.8 42.8-42.8 13.5-13.5 12.9-12.9C765.7 48.6 642.6 0 512 0 375.2 0 246.5 53.3 149.7 150-45.6 345.2-49.8 660 136.9 860.5c4.2 4.5 8.4 9.1 12.9 13.5 4.4 4.4 9 8.6 13.5 12.9l12.9-12.9 13.5-13.5 42.8-42.8 26.4-26.4 43.3-43.3 19.2-19.2 7.2-7.2c-4.7-4.1-9.4-8.1-13.8-12.5s-8.5-9.2-12.6-13.8C257.6 644.5 233 580.2 233 512c0-74.5 29-144.5 81.7-197.2 52.7-52.7 122.8-81.7 197.3-81.7 68.3 0 132.6 24.6 183.4 69.1l26.4-26.4c-57.9-51.6-131.6-80.1-209.8-80.1-84.5 0-163.9 32.9-223.7 92.6-59.8 59.7-92.6 139.2-92.6 223.7 0 78.2 28.5 151.8 80.1 209.7L232.5 765c-63-69.4-97.6-158.5-97.6-252.9 0-100.7 39.2-195.3 110.5-266.5 71.3-71.2 165.9-110.5 266.6-110.5 94.5 0 183.6 34.5 253.1 97.5l-43.3 43.3 43.3-43.3z" fill="url(#b)"/></g></svg>