<svg xmlns="http://www.w3.org/2000/svg" width="64" height="45" viewBox="0 0 64 45" fill="none">
  <g clip-path="url(#clip0_163_1978)">
    <path d="M31.9609 25.6057C37.1396 25.6057 41.8083 22.4858 43.7896 17.701C45.7708 12.9162 44.6744 7.40908 41.0116 3.74802C37.3487 0.0869679 31.8411 -1.00686 27.0573 0.976676C22.2734 2.96021 19.1557 7.63041 19.1582 12.8092C19.1582 16.2041 20.5072 19.4599 22.9084 21.8598C25.3095 24.2598 28.566 25.6073 31.9609 25.6057Z" fill="#FFCD00"/>
    <path d="M32.0403 32.0039H31.9975C23.2157 32.0017 15.5532 26.0455 13.3843 17.5358C12.7414 14.9765 10.6597 12.8091 8.0208 12.8091H0C0 30.4808 14.3258 44.8066 31.9975 44.8066H32.0403V32.0039Z" fill="#00ECBB"/>
    <path d="M31.9609 32.0039H31.9977C40.7802 32.0038 48.4439 26.0468 50.6108 17.5358C51.2598 14.9765 53.3416 12.8091 55.9805 12.8091H64.0013C63.9979 30.4818 49.6704 44.8066 31.9977 44.8066H31.9609V32.0039Z" fill="#AF64FF"/>
    <path d="M54.6272 35.4327C48.6265 41.434 40.4874 44.8055 32.0006 44.8055C23.5139 44.8055 15.3748 41.434 9.37402 35.4327L18.4234 26.3833C25.9233 33.8785 38.078 33.8785 45.5778 26.3833L54.6272 35.4327Z" fill="#7131FF"/>
  </g>
  <defs>
    <clipPath id="clip0_163_1978">
      <rect width="64" height="45" fill="white"/>
    </clipPath>
  </defs>
</svg>