<svg width="23" height="23" viewBox="0 0 23 23" fill="none" xmlns="http://www.w3.org/2000/svg">
<g id="Group">
<path id="Vector" d="M23 0H0V23H23V0Z" fill="#5865F2"/>
<path id="Vector_2" d="M17.4785 6.10048C16.3826 5.60034 15.2004 5.23821 13.9664 5.03125C13.9405 5.03125 13.9232 5.03987 13.906 5.05712C13.7507 5.32443 13.5867 5.66934 13.4659 5.93663C12.137 5.73832 10.8167 5.73832 9.52234 5.93663C9.41017 5.66072 9.23758 5.32443 9.08224 5.05712C9.07361 5.03987 9.04774 5.03125 9.03047 5.03125C7.79648 5.23821 6.6143 5.60897 5.51838 6.10048C5.50976 6.10048 5.50113 6.10908 5.49249 6.11771C3.25753 9.40298 2.64487 12.6106 2.94688 15.7752C2.94688 15.7924 2.9555 15.8097 2.97277 15.8183C4.43974 16.8875 5.87219 17.5342 7.27011 17.9654C7.29601 17.974 7.31326 17.9654 7.33051 17.9481C7.65844 17.4997 7.96045 17.0341 8.21069 16.534C8.22796 16.5081 8.21069 16.4736 8.18481 16.4564C7.71884 16.2839 7.27011 16.0684 6.83866 15.8269C6.80414 15.8097 6.80414 15.7579 6.83003 15.7407C6.91631 15.6717 7.01123 15.6027 7.09752 15.5338C7.11479 15.5251 7.13204 15.5165 7.14929 15.5251C9.97106 16.7927 13.0344 16.7927 15.8217 15.5251C15.8389 15.5165 15.8648 15.5165 15.8821 15.5338C15.9684 15.6027 16.0547 15.6717 16.1496 15.7407C16.1841 15.7666 16.1754 15.8097 16.1409 15.8269C15.7095 16.077 15.2608 16.2839 14.7948 16.4564C14.7603 16.465 14.7516 16.4995 14.7689 16.534C15.0278 17.0255 15.3212 17.4997 15.6491 17.9395C15.6663 17.9567 15.6836 17.9654 15.7095 17.9567C17.116 17.5256 18.5485 16.8789 20.0241 15.8183C20.0327 15.8097 20.0413 15.7924 20.05 15.7752C20.4124 12.1105 19.4459 8.93736 17.4957 6.11771C17.4957 6.11771 17.4871 6.10908 17.4785 6.10048ZM8.63354 13.8523C7.77923 13.8523 7.08027 13.0849 7.08027 12.145C7.08027 11.2051 7.77061 10.4377 8.63354 10.4377C9.50509 10.4377 10.1954 11.2138 10.1868 12.145C10.1868 13.0849 9.49644 13.8523 8.63354 13.8523ZM14.3719 13.8523C13.5177 13.8523 12.8187 13.0849 12.8187 12.145C12.8187 11.2051 13.509 10.4377 14.3719 10.4377C15.2435 10.4377 15.9338 11.2138 15.9252 12.145C15.9252 13.0849 15.2435 13.8523 14.3719 13.8523Z" fill="white"/>
</g>
</svg>
