<svg width="512" height="512" viewBox="0 0 512 512" fill="none" xmlns="http://www.w3.org/2000/svg">
<g clip-path="url(#clip0_163_1962)">
<path d="M0 0H512V512H0" fill="white"/>
<path d="M331 312H286V446C333.723 438.451 376.846 413.185 406.764 375.246C436.682 337.306 451.196 289.48 447.409 241.312C443.623 193.144 421.815 148.174 386.336 115.375C350.857 82.5753 304.317 64.3584 256 64.3584C207.683 64.3584 161.142 82.5753 125.664 115.375C90.1848 148.174 68.3767 193.144 64.5903 241.312C60.8039 289.48 75.3176 337.306 105.236 375.246C135.154 413.185 178.276 438.451 226 446V312H177V256H226V211C228.667 151.667 267.333 129 342 143V190H316C296.667 190.667 286.667 200.667 286 220V256H339.5" fill="#1877F2"/>
</g>
<defs>
<clipPath id="clip0_163_1962">
<rect width="512" height="512" fill="white"/>
</clipPath>
</defs>
</svg>
