<svg xmlns="http://www.w3.org/2000/svg" width="49" height="67" viewBox="0 0 49 67" fill="none">
  <g clip-path="url(#clip0_163_1910)">
    <mask id="mask0_163_1910" style="mask-type:luminance" maskUnits="userSpaceOnUse" x="0" y="0" width="49" height="67">
      <path d="M30.4168 0.958496H5.271C2.83037 0.958496 0.833496 2.95537 0.833496 5.396V61.6043C0.833496 64.045 2.83037 66.0418 5.271 66.0418H43.7293C46.17 66.0418 48.1668 64.045 48.1668 61.6043V18.7085L30.4168 0.958496Z" fill="white"/>
    </mask>
    <g mask="url(#mask0_163_1910)">
      <path d="M30.4168 0.958496H5.271C2.83037 0.958496 0.833496 2.95537 0.833496 5.396V61.6043C0.833496 64.045 2.83037 66.0418 5.271 66.0418H43.7293C46.17 66.0418 48.1668 64.045 48.1668 61.6043V18.7085L37.8127 11.3127L30.4168 0.958496Z" fill="#0F9D58"/>
    </g>
    <mask id="mask1_163_1910" style="mask-type:luminance" maskUnits="userSpaceOnUse" x="0" y="0" width="49" height="67">
      <path d="M30.4168 0.958496H5.271C2.83037 0.958496 0.833496 2.95537 0.833496 5.396V61.6043C0.833496 64.045 2.83037 66.0418 5.271 66.0418H43.7293C46.17 66.0418 48.1668 64.045 48.1668 61.6043V18.7085L30.4168 0.958496Z" fill="white"/>
    </mask>
    <g mask="url(#mask1_163_1910)">
      <path d="M12.667 32.7607V54.2087H36.3337V32.7607H12.667ZM23.0212 51.2503H15.6253V47.5524H23.0212V51.2503ZM23.0212 45.3337H15.6253V41.6357H23.0212V45.3337ZM23.0212 39.417H15.6253V35.7191H23.0212V39.417ZM33.3753 51.2503H25.9795V47.5524H33.3753V51.2503ZM33.3753 45.3337H25.9795V41.6357H33.3753V45.3337ZM33.3753 39.417H25.9795V35.7191H33.3753V39.417Z" fill="#F1F1F1"/>
    </g>
    <mask id="mask2_163_1910" style="mask-type:luminance" maskUnits="userSpaceOnUse" x="0" y="0" width="49" height="67">
      <path d="M30.4168 0.958496H5.271C2.83037 0.958496 0.833496 2.95537 0.833496 5.396V61.6043C0.833496 64.045 2.83037 66.0418 5.271 66.0418H43.7293C46.17 66.0418 48.1668 64.045 48.1668 61.6043V18.7085L30.4168 0.958496Z" fill="white"/>
    </mask>
    <g mask="url(#mask2_163_1910)">
      <path d="M31.7148 17.4106L48.1669 33.859V18.7086L31.7148 17.4106Z" fill="url(#paint0_linear_163_1910)"/>
    </g>
    <mask id="mask3_163_1910" style="mask-type:luminance" maskUnits="userSpaceOnUse" x="0" y="0" width="49" height="67">
      <path d="M30.4168 0.958496H5.271C2.83037 0.958496 0.833496 2.95537 0.833496 5.396V61.6043C0.833496 64.045 2.83037 66.0418 5.271 66.0418H43.7293C46.17 66.0418 48.1668 64.045 48.1668 61.6043V18.7085L30.4168 0.958496Z" fill="white"/>
    </mask>
    <g mask="url(#mask3_163_1910)">
      <path d="M30.417 0.958496V14.271C30.417 16.7227 32.4028 18.7085 34.8545 18.7085H48.167L30.417 0.958496Z" fill="#87CEAC"/>
    </g>
    <mask id="mask4_163_1910" style="mask-type:luminance" maskUnits="userSpaceOnUse" x="0" y="0" width="49" height="67">
      <path d="M30.4168 0.958496H5.271C2.83037 0.958496 0.833496 2.95537 0.833496 5.396V61.6043C0.833496 64.045 2.83037 66.0418 5.271 66.0418H43.7293C46.17 66.0418 48.1668 64.045 48.1668 61.6043V18.7085L30.4168 0.958496Z" fill="white"/>
    </mask>
    <g mask="url(#mask4_163_1910)">
      <path d="M5.271 0.958496C2.83037 0.958496 0.833496 2.95537 0.833496 5.396V5.76579C0.833496 3.32516 2.83037 1.32829 5.271 1.32829H30.4168V0.958496H5.271Z" fill="white" fill-opacity="0.2"/>
    </g>
    <mask id="mask5_163_1910" style="mask-type:luminance" maskUnits="userSpaceOnUse" x="0" y="0" width="49" height="67">
      <path d="M30.4168 0.958496H5.271C2.83037 0.958496 0.833496 2.95537 0.833496 5.396V61.6043C0.833496 64.045 2.83037 66.0418 5.271 66.0418H43.7293C46.17 66.0418 48.1668 64.045 48.1668 61.6043V18.7085L30.4168 0.958496Z" fill="white"/>
    </mask>
    <g mask="url(#mask5_163_1910)">
      <path d="M43.7293 65.6719H5.271C2.83037 65.6719 0.833496 63.675 0.833496 61.2344V61.6042C0.833496 64.0448 2.83037 66.0417 5.271 66.0417H43.7293C46.17 66.0417 48.1668 64.0448 48.1668 61.6042V61.2344C48.1668 63.675 46.17 65.6719 43.7293 65.6719Z" fill="#263238" fill-opacity="0.2"/>
    </g>
    <mask id="mask6_163_1910" style="mask-type:luminance" maskUnits="userSpaceOnUse" x="0" y="0" width="49" height="67">
      <path d="M30.4168 0.958496H5.271C2.83037 0.958496 0.833496 2.95537 0.833496 5.396V61.6043C0.833496 64.045 2.83037 66.0418 5.271 66.0418H43.7293C46.17 66.0418 48.1668 64.045 48.1668 61.6043V18.7085L30.4168 0.958496Z" fill="white"/>
    </mask>
    <g mask="url(#mask6_163_1910)">
      <path d="M34.8545 18.7085C32.4028 18.7085 30.417 16.7227 30.417 14.271V14.6408C30.417 17.0925 32.4028 19.0783 34.8545 19.0783H48.167V18.7085H34.8545Z" fill="#263238" fill-opacity="0.1"/>
    </g>
    <path d="M30.4168 0.958496H5.271C2.83037 0.958496 0.833496 2.95537 0.833496 5.396V61.6043C0.833496 64.045 2.83037 66.0418 5.271 66.0418H43.7293C46.17 66.0418 48.1668 64.045 48.1668 61.6043V18.7085L30.4168 0.958496Z" fill="url(#paint1_radial_163_1910)"/>
  </g>
  <defs>
    <linearGradient id="paint0_linear_163_1910" x1="854.405" y1="158.638" x2="854.405" y2="1662.47" gradientUnits="userSpaceOnUse">
      <stop stop-color="#263238" stop-opacity="0.2"/>
      <stop offset="1" stop-color="#263238" stop-opacity="0.02"/>
    </linearGradient>
    <radialGradient id="paint1_radial_163_1910" cx="0" cy="0" r="1" gradientUnits="userSpaceOnUse" gradientTransform="translate(150.788 129.592) scale(7632.43 7632.43)">
      <stop stop-color="white" stop-opacity="0.1"/>
      <stop offset="1" stop-color="white" stop-opacity="0"/>
    </radialGradient>
    <clipPath id="clip0_163_1910">
      <rect width="49" height="67" fill="white"/>
    </clipPath>
  </defs>
</svg>