<svg width="512" height="512" viewBox="0 0 512 512" fill="none" xmlns="http://www.w3.org/2000/svg">
<g clip-path="url(#clip0_163_1895)">
<path d="M0 0H512V512H0" fill="white"/>
<path d="M126 417C132 420.333 138.333 422 145 422H367C373 422 379.333 420.333 386 417V313H99" fill="#4285F4"/>
<path d="M196 87C202 83.6667 208.667 82 216 82H296C304 82 310.667 83.6667 316 87V191H248" fill="#188038"/>
<path d="M66 313C66 306.333 67.6667 300 71 294L181 103C185 95.6667 190 90.3333 196 87L256 191L184 316" fill="#34A853"/>
<path d="M256 191L328 316L446 313C446 305 443.333 297 438 289L331 103C327.667 96.3333 322.667 91 316 87" fill="#FBBC04"/>
<path d="M185.714 313H66C66 318.333 67 323.333 69 328L109 398C113.667 406.667 119.333 413 126 417" fill="#1967D2"/>
<path d="M386 417C392 413.667 397.333 408 402 400L440 334C444 327.333 446 320.333 446 313H326.3" fill="#EA4335"/>
</g>
<defs>
<clipPath id="clip0_163_1895">
<rect width="512" height="512" fill="white"/>
</clipPath>
</defs>
</svg>
