<svg xmlns="http://www.w3.org/2000/svg" width="32" height="32" viewBox="0 0 32 32" fill="none">
  <path fill-rule="evenodd" clip-rule="evenodd" d="M12.5678 0.640137L3.25774 3.07854L0.691977 12.4411L3.90094 15.7358L0.640137 18.9761L3.05486 28.3796L12.3246 30.9697L15.586 27.7287L18.795 31.0228L28.1051 28.5844L30.6702 19.2212L27.4619 15.9278L30.7227 12.6875L28.3079 3.28334L19.0369 0.693257L15.7767 3.93358L12.5678 0.640137ZM6.85454 4.8795L11.7588 3.59438L13.9035 5.79598L10.7758 8.90382L6.85454 4.8795ZM17.6206 5.82542L19.7998 3.6603L24.683 5.02478L20.6977 8.98446L17.6206 5.82542ZM3.63022 11.6724L4.98126 6.74126L8.90126 10.7655L5.77422 13.8734L3.63022 11.6724ZM22.5403 10.8769L26.5255 6.91598L27.7966 11.8695L25.618 14.0353L22.5403 10.8769ZM12.619 10.7956L15.7467 7.68782L18.8231 10.8468L15.6961 13.9547L12.619 10.7956ZM7.61806 15.7652L10.7451 12.6574L13.8235 15.8164L10.6951 18.9243L7.61806 15.7652ZM17.5399 15.8465L20.667 12.7387L23.7441 15.8977L20.6164 19.0055L17.5399 15.8465ZM3.56494 19.7934L5.74478 17.627L8.82126 20.7867L4.83726 24.7457L3.56494 19.7934ZM12.5383 20.8161L15.666 17.7083L18.7431 20.8673L15.6161 23.9751L12.5383 20.8161ZM22.4596 20.898L25.5873 17.7902L27.7319 19.9911L26.3815 24.9223L22.4596 20.898ZM6.67982 26.6388L10.6644 22.6779L13.7428 25.8369L11.563 28.0033L6.67982 26.6388ZM17.4593 25.867L20.5863 22.7591L24.507 26.7841L19.6033 28.0686L17.4593 25.867Z" fill="black"/>
</svg>