<svg xmlns="http://www.w3.org/2000/svg" width="63" height="65" viewBox="0 0 63 65" fill="none">
  <g clip-path="url(#clip0_163_1975)">
    <path d="M57.4775 34.8122L57.5197 34.8155L61.9227 35.2742C62.2318 35.3074 62.5156 35.4578 62.7162 35.6929L62.7489 35.7328L62.7071 35.7536C62.9128 36.0124 63.0036 36.3437 62.958 36.6709C61.996 44.2936 58.3712 51.335 52.7196 56.5593C46.8555 61.9802 39.1529 64.9921 31.1547 64.9921C27.2701 64.9983 23.4186 64.2855 19.796 62.8903L19.5986 62.8135C19.3021 62.7043 19.0639 62.4796 18.9378 62.1923L18.9188 62.1465C18.7953 61.8604 18.7884 61.5385 18.8982 61.2487L20.6361 57.0225C20.8716 56.4251 21.539 56.1241 22.1417 56.3359L22.1818 56.3508C31.065 59.7695 41.1262 57.844 48.1075 51.3892C52.5512 47.3195 55.4165 41.8215 56.202 35.8578C56.2852 35.242 56.8213 34.794 57.4355 34.8103L57.4775 34.8122ZM10.6999 50.5864L10.762 50.5859L10.8243 50.5864C12.8225 50.6093 14.4314 52.2197 14.4531 54.2041L14.4533 54.2662C14.4533 54.2867 14.4531 54.3075 14.4527 54.328C14.4179 56.3599 12.7373 57.9792 10.6987 57.9447C8.66012 57.91 7.0357 56.235 7.07014 54.2031C7.10422 52.2127 8.7176 50.6182 10.6999 50.5864ZM1.21316 36.0768H37.2207C37.8823 36.0824 38.4168 36.6105 38.4335 37.2649L38.4339 37.3068V41.7995C38.4394 42.459 37.9186 43.0007 37.2626 43.0283L37.2205 43.0294H1.21316C0.551356 43.0238 0.0169865 42.4955 0 41.8413V41.7994V37.3067V37.2647C0.0166321 36.6247 0.528536 36.1054 1.1702 36.0779L1.21316 36.0768ZM41.728 1.79323C42.0398 1.90533 42.2925 2.13846 42.4287 2.43954C42.5537 2.74347 42.5537 3.08423 42.4287 3.38799L40.86 7.55761C40.6426 8.17584 39.9644 8.50213 39.3436 8.28723C31.1253 5.42882 22.0062 7.0529 15.2898 12.5713C11.1041 16.0633 8.13204 20.7841 6.79784 26.0595C6.65972 26.5923 6.17846 26.9649 5.62652 26.9665H5.35459L1.04581 25.9345C0.724543 25.8593 0.448664 25.6556 0.282382 25.3715H0.261395C0.0870423 25.0876 0.0378934 24.7445 0.125608 24.4231C1.83667 17.67 5.66527 11.6375 11.0542 7.20308C19.6234 0.171652 31.2584 -1.88044 41.728 1.79323ZM25.7794 19.8054H61.7867C62.4321 19.8107 62.9596 20.3138 62.998 20.951L63 20.9936V25.4863C63.0054 26.1459 62.485 26.6876 61.8288 26.7153L61.7867 26.7164H25.7794C25.1219 26.7052 24.5936 26.179 24.577 25.5289L24.5765 25.4863V21.0353C24.5709 20.38 25.085 19.8403 25.7367 19.8069L25.7794 19.8054ZM50.7755 6.09813L50.8376 6.09765L50.8999 6.09819C52.8981 6.12101 54.507 7.73145 54.5287 9.71563L54.5289 9.77776C54.5289 9.79849 54.5286 9.81923 54.5283 9.83979C54.4937 11.8717 52.8129 13.4908 50.7743 13.4563C48.7357 13.4217 47.1113 11.7465 47.1459 9.71482C47.1798 7.72423 48.7933 6.12994 50.7755 6.09813Z" fill="#4FB58B"/>
  </g>
  <defs>
    <clipPath id="clip0_163_1975">
      <rect width="63" height="65" fill="white"/>
    </clipPath>
  </defs>
</svg>