<svg xmlns="http://www.w3.org/2000/svg" width="64" height="64" viewBox="0 0 64 64" fill="none">
  <path opacity="0.2" d="M52 5H12C7.58172 5 4 8.58172 4 13V53C4 57.4183 7.58172 61 12 61H52C56.4183 61 60 57.4183 60 53V13C60 8.58172 56.4183 5 52 5Z" fill="black"/>
  <path d="M52 4H12C7.58172 4 4 7.58172 4 12V52C4 56.4183 7.58172 60 12 60H52C56.4183 60 60 56.4183 60 52V12C60 7.58172 56.4183 4 52 4Z" fill="#4D4D4D"/>
  <path opacity="0.2" d="M13 13L28.9375 34.25L13 53H17L30.8125 36.75L43 53H51L35.0625 31.75L51 13H47L33.1875 29.25L21 13H13ZM17 15H20L47 51H44L17 15Z" fill="black"/>
  <path d="M13 12L28.9375 33.25L13 52H17L30.8125 35.75L43 52H51L35.0625 30.75L51 12H47L33.1875 28.25L21 12H13ZM17 14H20L47 50H44L17 14Z" fill="white"/>
  <path opacity="0.1" d="M12 4C7.56801 4 4 7.56801 4 12V13C4 8.56801 7.56801 5 12 5H52C56.432 5 60 8.56801 60 13V12C60 7.56801 56.432 4 52 4H12Z" fill="white"/>
</svg>