<?xml version="1.0" standalone="no"?>
<!DOCTYPE svg PUBLIC "-//W3C//DTD SVG 20010904//EN"
 "http://www.w3.org/TR/2001/REC-SVG-20010904/DTD/svg10.dtd">
<svg version="1.0" xmlns="http://www.w3.org/2000/svg"
 width="512.000000pt" height="512.000000pt" viewBox="0 0 512.000000 512.000000"
 preserveAspectRatio="xMidYMid meet">
<metadata>
Created by potrace 1.14, written by Peter Selinger 2001-2017
</metadata>
<g transform="translate(0.000000,512.000000) scale(0.100000,-0.100000)"
fill="#000000" stroke="none">
<path d="M3130 4759 c0 -3 -13 -5 -30 -3 -19 2 -30 -1 -30 -9 0 -8 -3 -8 -9 2
-5 8 -11 9 -15 3 -4 -6 -15 -9 -26 -7 -11 2 -20 0 -20 -5 0 -5 -7 -7 -15 -4
-8 4 -15 2 -15 -4 0 -6 -8 -9 -17 -8 -10 2 -37 -5 -60 -15 -22 -10 -44 -15
-47 -12 -3 4 -6 2 -6 -4 0 -6 -12 -14 -27 -18 -15 -3 -30 -11 -34 -16 -3 -6
-16 -11 -27 -12 -12 -1 -22 -5 -22 -8 0 -4 -16 -13 -34 -20 -19 -7 -33 -16
-30 -21 3 -4 -2 -8 -10 -8 -9 0 -16 -5 -16 -12 0 -6 -3 -8 -7 -5 -3 4 -25 -9
-49 -28 -23 -19 -46 -35 -51 -35 -5 0 -24 -16 -43 -35 -19 -19 -37 -35 -42
-35 -4 0 -26 -18 -49 -40 -23 -22 -47 -40 -52 -40 -6 0 -8 -3 -4 -6 8 -8 -25
-44 -35 -38 -4 3 -8 0 -8 -6 0 -15 -25 -40 -41 -40 -7 0 -10 -3 -7 -6 3 -3
-18 -31 -47 -62 -30 -31 -51 -60 -49 -64 3 -4 -2 -8 -11 -8 -8 0 -19 -8 -22
-17 -4 -10 -12 -23 -17 -29 -34 -37 -70 -86 -66 -90 3 -2 -5 -11 -18 -19 -12
-9 -20 -21 -17 -26 4 -5 0 -12 -8 -15 -8 -3 -22 -23 -32 -45 -10 -21 -21 -39
-24 -39 -4 0 -15 -20 -26 -45 -11 -25 -23 -45 -27 -45 -5 0 -8 -7 -8 -15 0 -8
-5 -15 -10 -15 -6 0 -9 -3 -9 -7 3 -14 -25 -73 -34 -73 -4 0 -6 -4 -2 -9 3 -5
-2 -17 -11 -25 -8 -9 -13 -16 -9 -16 3 0 -2 -11 -11 -25 -9 -14 -13 -25 -9
-25 5 0 0 -9 -10 -20 -10 -11 -15 -20 -10 -20 4 0 2 -7 -5 -15 -7 -8 -9 -15
-6 -15 4 0 0 -7 -8 -16 -9 -8 -16 -24 -16 -34 0 -10 -5 -22 -10 -25 -6 -4 -8
-11 -5 -16 4 -5 1 -9 -4 -9 -6 0 -11 -9 -11 -20 0 -11 -4 -20 -8 -20 -5 0 -9
-6 -10 -12 -3 -33 -10 -52 -20 -56 -6 -2 -8 -10 -5 -18 3 -8 0 -14 -7 -14 -6
0 -8 -5 -5 -10 4 -6 1 -17 -5 -25 -6 -8 -9 -18 -6 -24 3 -5 -1 -12 -10 -15 -8
-3 -13 -10 -10 -14 3 -5 -1 -20 -9 -35 -8 -15 -12 -27 -10 -27 2 0 -7 -27 -20
-60 -13 -33 -21 -60 -19 -60 3 0 -1 -10 -8 -22 -7 -13 -13 -26 -14 -30 -1 -5
-3 -10 -4 -13 -1 -3 -4 -9 -5 -15 -1 -5 -3 -11 -4 -12 -2 -2 -4 -14 -7 -27 -2
-14 -9 -30 -14 -36 -5 -7 -12 -25 -14 -41 -2 -16 -8 -42 -15 -57 -6 -16 -11
-35 -11 -43 0 -8 -4 -14 -8 -14 -4 0 -8 -8 -9 -17 0 -10 -4 -29 -8 -43 -4 -14
-8 -33 -8 -42 -1 -10 -4 -18 -8 -18 -4 0 -9 -14 -12 -30 -7 -35 -15 -65 -17
-65 -1 0 -3 -8 -6 -17 -2 -10 -6 -26 -8 -35 -3 -10 -5 -20 -6 -23 -1 -3 -2 -8
-1 -12 0 -5 -4 -8 -10 -8 -8 0 -8 -5 1 -15 9 -11 9 -15 1 -15 -7 0 -9 -4 -6
-10 3 -5 2 -10 -4 -10 -5 0 -8 -9 -6 -20 2 -11 1 -20 -3 -20 -4 0 -9 -8 -10
-17 -2 -21 -10 -57 -12 -60 -2 -2 -3 -6 -4 -10 -1 -5 -8 -31 -15 -59 -7 -29
-14 -60 -16 -70 -2 -11 -4 -19 -5 -19 -2 0 -9 -31 -14 -55 -1 -8 -5 -22 -8
-30 -10 -26 -48 -199 -48 -218 0 -10 -3 -22 -7 -26 -4 -3 -8 -17 -10 -29 -2
-12 -10 -53 -18 -92 -28 -128 -46 -220 -48 -246 -1 -10 -4 -19 -8 -19 -4 0 -6
-11 -4 -25 1 -14 -2 -28 -7 -31 -4 -3 -6 -10 -3 -15 4 -5 3 -14 -1 -21 -4 -7
-9 -26 -10 -43 -1 -24 7 -38 41 -70 73 -68 95 -85 108 -85 8 0 7 -4 -3 -10
-13 -9 -13 -10 0 -10 8 0 48 -32 89 -70 41 -39 76 -70 79 -70 3 0 18 -14 34
-30 15 -17 33 -30 38 -30 6 0 10 -6 10 -13 0 -8 12 -20 26 -27 14 -8 30 -22
35 -32 5 -10 16 -18 24 -18 8 0 15 -7 15 -15 0 -8 4 -15 8 -15 16 0 52 -37 44
-44 -4 -4 -2 -6 5 -4 6 2 41 -25 77 -59 37 -35 68 -63 70 -63 2 0 32 -27 67
-60 l63 -60 21 20 c12 11 25 20 29 20 4 0 22 15 39 33 18 18 36 33 40 34 5 0
27 16 49 34 44 37 78 64 93 76 9 7 83 66 129 103 10 8 24 21 31 27 8 7 18 13
24 13 6 0 11 4 11 8 0 4 30 31 68 59 37 29 77 61 88 72 12 11 25 17 28 14 3
-4 6 -1 6 5 0 6 12 18 28 26 15 8 23 15 17 16 -5 0 8 12 30 27 22 14 42 29 45
33 3 3 23 19 44 36 22 16 50 38 62 49 37 33 58 50 64 50 3 0 21 15 40 32 19
18 41 33 48 33 7 0 10 5 7 10 -3 6 -2 10 3 10 11 0 123 89 135 108 4 6 15 12
22 12 8 0 15 5 15 11 0 5 5 7 10 4 6 -3 10 2 10 11 0 10 3 14 7 11 3 -4 12 2
20 13 8 11 19 20 25 20 6 0 21 11 34 25 13 14 25 25 28 25 6 0 45 32 72 58 7
6 18 12 24 12 6 0 8 4 5 10 -3 5 1 10 9 10 9 0 16 5 16 10 0 6 5 10 11 10 7 0
20 10 30 22 11 11 19 18 19 15 0 -4 13 6 29 21 15 15 40 36 55 46 15 11 37 28
49 38 12 11 32 28 45 39 12 10 22 16 22 13 0 -3 11 6 24 20 13 15 26 26 30 26
6 0 19 10 74 60 17 16 32 27 32 25 0 -5 14 6 68 55 18 17 35 30 37 30 6 0 43
30 66 54 11 11 19 16 19 11 0 -4 11 4 25 19 13 14 27 26 31 26 6 0 21 13 83
70 27 26 34 30 50 30 5 0 12 9 16 20 3 11 10 19 14 17 7 -2 54 33 107 81 14
12 30 22 35 22 6 0 7 4 4 10 -3 5 -1 19 6 31 6 12 7 19 2 16 -6 -4 -9 14 -9
44 1 27 -2 55 -6 62 -4 6 -2 17 4 24 6 7 6 13 1 13 -5 0 -8 12 -7 28 1 15 -1
31 -4 36 -8 14 -7 60 2 74 4 7 3 12 -2 12 -9 0 -13 32 -15 118 -1 23 -4 42 -7
42 -3 0 -7 25 -8 56 -1 31 -7 65 -13 75 -7 13 -6 19 1 19 6 0 8 5 5 10 -7 11
-13 42 -21 100 -9 69 -12 85 -14 85 -1 0 -3 14 -5 30 -1 17 -3 30 -4 30 -2 0
-5 20 -7 45 -3 25 -9 47 -12 50 -4 3 -8 16 -8 30 -1 25 -10 81 -15 90 -1 3 -3
10 -4 15 -2 6 -4 12 -5 15 -5 13 -22 102 -23 118 0 6 -5 12 -10 12 -6 0 -8 3
-5 6 4 3 2 20 -3 37 -9 29 -17 63 -23 92 -1 6 -4 15 -7 20 -4 6 -9 22 -13 37
-3 15 -11 40 -18 55 -6 15 -12 34 -14 41 -1 8 -6 21 -10 30 -4 9 -9 26 -11 36
-2 11 -7 24 -12 30 -5 6 -11 20 -13 31 -1 11 -9 26 -16 33 -7 8 -10 18 -7 23
4 5 1 9 -5 9 -6 0 -8 5 -5 10 3 6 1 10 -6 10 -7 0 -10 3 -6 6 7 7 -48 120 -71
147 -8 9 -12 17 -8 17 4 0 -2 13 -13 29 -12 16 -21 34 -21 40 0 6 -4 11 -9 11
-5 0 -18 15 -29 33 -25 44 -46 69 -108 131 -73 73 -111 105 -118 99 -3 -4 -6
-1 -6 5 0 7 -5 12 -12 12 -6 0 -19 7 -29 16 -9 8 -26 16 -38 17 -11 1 -21 7
-21 15 0 7 -4 11 -9 7 -5 -3 -20 -1 -33 4 -46 18 -63 24 -88 26 -14 2 -43 6
-65 10 -53 9 -215 13 -215 4z m268 -611 c6 -1 12 -6 12 -11 0 -6 3 -7 6 -4 6
6 50 -14 82 -38 32 -24 92 -83 92 -92 0 -5 9 -15 20 -23 11 -8 20 -20 20 -27
0 -7 5 -13 10 -13 6 0 10 -6 10 -14 0 -8 3 -16 8 -18 12 -5 72 -125 65 -132
-4 -3 -1 -6 6 -6 8 0 11 -7 7 -15 -3 -8 -2 -15 3 -15 5 0 15 -20 22 -45 7 -25
17 -45 21 -45 4 0 8 -13 8 -28 0 -15 4 -32 8 -37 13 -16 34 -86 28 -92 -3 -4
1 -17 10 -31 8 -13 13 -26 10 -29 -2 -3 0 -17 6 -32 9 -23 15 -54 20 -98 1 -7
4 -13 8 -13 4 0 6 -12 5 -27 -1 -16 4 -41 10 -58 6 -16 11 -45 11 -62 -1 -18
2 -33 6 -33 3 0 5 -11 3 -25 -1 -14 1 -25 5 -25 4 0 6 -14 5 -30 -1 -17 1 -33
5 -35 4 -2 6 -20 5 -40 0 -19 2 -35 5 -35 3 0 6 -15 7 -32 1 -35 8 -105 18
-177 4 -31 2 -47 -7 -52 -10 -7 -10 -9 2 -9 12 0 15 -14 14 -70 0 -38 4 -70 8
-70 5 0 3 -6 -4 -14 -7 -8 -16 -12 -20 -9 -5 2 -8 -1 -8 -6 0 -6 -3 -10 -7 -9
-14 4 -53 -13 -53 -23 0 -5 -3 -8 -7 -8 -25 4 -43 -2 -37 -13 5 -7 2 -9 -8 -5
-9 3 -21 0 -27 -6 -6 -6 -11 -8 -11 -3 0 4 -7 0 -16 -8 -8 -9 -20 -14 -25 -11
-5 4 -9 2 -9 -3 0 -6 -12 -13 -27 -17 -15 -3 -30 -10 -33 -15 -3 -4 -14 -10
-25 -12 -11 -1 -26 -9 -33 -16 -8 -7 -17 -10 -22 -7 -4 3 -13 -2 -20 -10 -7
-8 -21 -15 -31 -15 -11 0 -19 -4 -19 -10 0 -5 -7 -7 -15 -4 -8 4 -15 2 -15 -4
0 -9 -37 -25 -52 -23 -5 1 -8 -3 -8 -7 0 -9 -70 -37 -82 -34 -5 1 -8 -2 -8 -7
0 -8 -37 -24 -52 -22 -5 1 -8 -4 -8 -10 0 -5 -4 -7 -10 -4 -5 3 -10 1 -10 -4
0 -6 -3 -10 -7 -9 -5 1 -48 -17 -96 -40 -49 -23 -93 -42 -98 -42 -5 0 -9 -4
-9 -10 0 -5 -7 -7 -15 -4 -8 4 -15 1 -15 -5 0 -6 -9 -11 -20 -11 -11 0 -29 -9
-40 -20 -11 -11 -20 -15 -20 -10 0 6 -9 2 -21 -9 -12 -11 -27 -17 -35 -14 -8
3 -14 0 -14 -6 0 -6 -9 -11 -20 -11 -11 0 -20 -5 -20 -11 0 -6 -7 -9 -15 -5
-8 3 -15 1 -15 -4 0 -9 -39 -26 -52 -22 -5 1 -8 -3 -8 -9 0 -5 -4 -7 -10 -4
-5 3 -10 1 -10 -5 0 -6 -4 -8 -10 -5 -5 3 -10 1 -10 -5 0 -7 -7 -10 -15 -6 -8
3 -15 1 -15 -4 0 -9 -39 -26 -52 -22 -5 1 -8 -2 -8 -7 0 -7 -84 -45 -103 -46
-4 0 -11 -6 -16 -13 -5 -8 -12 -14 -17 -14 -5 0 -25 -6 -44 -14 -19 -8 -35
-14 -36 -12 0 2 -8 -3 -17 -11 -10 -7 -17 -10 -17 -7 0 4 -7 0 -16 -8 -8 -9
-20 -14 -25 -11 -5 4 -9 1 -9 -4 0 -6 -4 -11 -10 -11 -5 0 -34 -11 -65 -25
-30 -14 -58 -25 -61 -24 -4 0 -10 -3 -13 -9 -3 -5 -21 -14 -40 -20 -29 -10
-32 -10 -27 5 6 15 15 64 21 108 1 11 3 20 5 20 1 0 4 14 6 30 8 45 12 70 14
70 2 0 9 36 13 65 2 14 6 30 9 35 3 6 4 20 3 33 -1 12 1 22 4 22 6 0 12 30 14
73 1 9 5 17 10 17 4 0 7 8 6 18 -2 16 7 60 18 92 7 19 14 59 16 88 0 12 5 22
9 22 4 0 8 8 8 18 0 23 32 156 39 162 3 3 7 14 8 25 3 20 10 56 13 65 2 3 2 9
1 14 -1 5 4 13 11 17 10 7 10 9 0 9 -9 0 -8 7 4 25 9 14 14 25 11 25 -3 0 1
17 10 38 8 20 15 39 15 42 -1 7 9 53 15 70 8 19 7 17 22 70 6 25 16 54 21 65
5 11 19 52 31 90 13 39 24 72 25 75 11 32 16 51 14 56 -1 4 3 10 9 14 6 3 14
17 16 31 3 13 9 33 14 44 30 66 41 95 41 109 0 9 4 16 10 16 5 0 14 18 20 40
6 21 15 42 21 46 6 3 8 12 5 19 -2 7 1 16 9 18 7 3 16 19 20 36 4 17 11 31 16
31 6 0 7 5 4 10 -3 6 -3 10 2 10 4 0 19 23 32 50 14 28 29 50 34 50 4 0 6 4 3
9 -3 5 1 14 9 21 8 7 15 16 15 21 0 14 71 109 81 109 5 0 8 3 7 8 -2 4 5 18
15 32 9 13 17 21 17 16 0 -5 10 4 22 20 30 39 48 57 48 48 0 -4 9 5 21 20 11
14 25 26 30 26 5 0 19 9 31 20 12 11 29 20 37 20 9 0 25 7 35 15 10 8 23 12
27 9 5 -3 9 0 9 6 0 6 6 10 13 9 6 -1 19 1 27 4 32 13 89 14 188 5z"/>
</g>
</svg>
